<?xml version="1.0" encoding="UTF-8"?>
<svg version="1.1" xmlns="http://www.w3.org/2000/svg" width="1024" height="1024">
<path d="M0 0 C337.92 0 675.84 0 1024 0 C1024 337.92 1024 675.84 1024 1024 C686.08 1024 348.16 1024 0 1024 C0 686.08 0 348.16 0 0 Z " fill="#0D0D0B" transform="translate(0,0)"/>
<path d="M0 0 C1.01078613 0.57439819 1.01078613 0.57439819 2.04199219 1.16040039 C3.23743652 1.82773193 3.23743652 1.82773193 4.45703125 2.50854492 C5.32553711 3.00338379 6.19404297 3.49822266 7.08886719 4.00805664 C9.06679313 5.11054594 11.04604959 6.21065035 13.02636719 7.30883789 C14.11175781 7.91163574 15.19714844 8.51443359 16.31542969 9.13549805 C22.85820133 12.74515181 29.48022139 16.20858697 36.08886719 19.69555664 C37.5413965 20.46311141 38.99387 21.23077179 40.44628906 21.99853516 C44.90967424 24.35740617 49.37417342 26.71416357 53.83886719 29.07055664 C71.6888982 38.49151397 89.5327554 47.91325519 107.22070312 57.63647461 C110.07052185 59.19744395 112.92670771 60.74630036 115.78417969 62.29321289 C116.77579102 62.83091309 117.76740234 63.36861328 118.7890625 63.92260742 C120.67023616 64.94233545 122.55232472 65.96037845 124.43554688 66.97631836 C139.33870094 75.07022415 139.33870094 75.07022415 140.83886719 78.07055664 C140.93455741 80.70310467 140.96900083 83.30907421 140.9591217 85.94180298 C140.96040334 87.17555729 140.96040334 87.17555729 140.96171087 88.43423593 C140.96336535 91.20577215 140.95784481 93.9772486 140.95239258 96.7487793 C140.95211067 98.72934467 140.9522685 100.70991015 140.95283508 102.69047546 C140.95312293 108.08069008 140.94722825 113.47088262 140.94026113 118.86109209 C140.93402547 124.48921123 140.93342362 130.11733082 140.93223572 135.74545288 C140.92912303 146.40913893 140.92091048 157.07281478 140.91088623 167.73649633 C140.89972316 179.87415805 140.89421415 192.01182025 140.88919079 204.14948583 C140.87872782 229.12318176 140.86112958 254.09686863 140.83886719 279.07055664 C140.02931076 279.47213989 139.21975433 279.87372314 138.38566589 280.28747559 C137.31601089 280.81981812 136.2463559 281.35216064 135.14428711 281.90063477 C134.08723068 282.42596802 133.03017426 282.95130127 131.94108582 283.49255371 C127.58988412 285.7058758 123.36994415 288.11644204 119.15136719 290.57055664 C111.35121959 295.06919697 103.51694946 299.49987066 95.65136719 303.88305664 C85.98371374 309.27947611 76.37508734 314.77129357 66.79248047 320.31713867 C59.31268737 324.64577959 51.82024573 328.95129549 44.31549072 333.2364502 C42.54033497 334.2500809 40.76550498 335.26428008 38.99072266 336.27856445 C33.57288112 339.37338548 28.15172647 342.46204003 22.72167969 345.53540039 C21.77591064 346.07205322 20.8301416 346.60870605 19.85571289 347.16162109 C18.12929548 348.14086462 16.40141203 349.11753102 14.67163086 350.09082031 C9.85780537 352.82431926 5.32829624 355.75648931 0.87084961 359.04467773 C-1.16113281 360.07055664 -1.16113281 360.07055664 -3.25634766 359.80639648 C-14.6450585 355.40680991 -25.24910546 348.69182962 -35.82128906 342.66821289 C-42.44770815 338.89634693 -49.1150346 335.20015059 -55.78613281 331.50805664 C-68.14298031 324.65984125 -80.41569783 317.67361118 -92.66308594 310.63208008 C-95.20322443 309.17253663 -97.74434361 307.71472342 -100.28613281 306.25805664 C-101.55215332 305.53223389 -101.55215332 305.53223389 -102.84375 304.79174805 C-107.9078704 301.89863656 -112.99328977 299.0464775 -118.09863281 296.22680664 C-118.69449188 295.89739578 -119.29035095 295.56798492 -119.90426636 295.22859192 C-122.82065157 293.61703755 -125.7392461 292.00987011 -128.66162109 290.40917969 C-129.73653809 289.81661377 -130.81145508 289.22404785 -131.91894531 288.61352539 C-133.32877686 287.84045044 -133.32877686 287.84045044 -134.76708984 287.05175781 C-135.88712402 286.39796143 -137.0071582 285.74416504 -138.16113281 285.07055664 C-139.49428622 284.54529042 -139.49428622 284.54529042 -140.85437202 284.00941277 C-144.32144534 282.37841425 -146.566985 280.91245065 -149.16113281 278.07055664 C-150.82402293 271.80472525 -150.5639413 265.63807882 -150.42578125 259.1953125 C-150.42431468 257.25329883 -150.42768358 255.31127638 -150.43551636 253.36927795 C-150.44293831 248.10389159 -150.38241293 242.84123182 -150.3093977 237.57642817 C-150.24426604 232.06470989 -150.24081887 226.55295291 -150.23052979 221.04090881 C-150.2048017 211.7859035 -150.13959806 202.53190125 -150.04589844 193.27734375 C-149.91379922 180.22884486 -149.84918899 167.18068006 -149.79991865 154.13163936 C-149.73092019 136.65047381 -149.63990818 119.16918482 -149.47546768 101.68863487 C-149.45817486 99.79640827 -149.44244006 97.90416668 -149.42837906 96.0119133 C-149.40868911 93.42848217 -149.38292899 90.84518353 -149.35540771 88.26182556 C-149.35081724 87.51366969 -149.34622676 86.76551381 -149.34149718 85.99468654 C-149.29034849 81.92982165 -149.11115542 78.03199647 -148.16113281 74.07055664 C-145.99414062 72.29467773 -145.99414062 72.29467773 -143.11425781 70.84399414 C-141.52049316 70.01750366 -141.52049316 70.01750366 -139.89453125 69.17431641 C-138.74500977 68.60382568 -137.59548828 68.03333496 -136.41113281 67.44555664 C-134.62691006 66.52562041 -132.84270171 65.60564853 -131.06060791 64.68159485 C-129.85302632 64.05614024 -128.64415101 63.4331774 -127.434021 62.81266785 C-121.82134384 59.92824092 -116.36147027 56.81047663 -110.91113281 53.63305664 C-104.37051905 49.84847008 -97.80219393 46.34085775 -91.00488281 43.03930664 C-85.81848504 40.44610775 -80.81840198 37.51009133 -75.78613281 34.63305664 C-68.54622695 30.49588394 -61.28160247 26.53292437 -53.78857422 22.8762207 C-49.32580229 20.686591 -44.98111094 18.34172375 -40.66113281 15.88305664 C-39.35125794 15.14213417 -38.04136111 14.4012505 -36.73144531 13.66040039 C-34.22313765 12.2408511 -31.71742553 10.81708315 -29.21484375 9.38745117 C-25.99761503 7.55699297 -22.76801583 5.74999223 -19.53613281 3.94555664 C-17.98829102 3.05574097 -17.98829102 3.05574097 -16.40917969 2.14794922 C-15.42755859 1.60420654 -14.4459375 1.06046387 -13.43457031 0.50024414 C-12.5623584 0.00766113 -11.69014648 -0.48492187 -10.79150391 -0.99243164 C-6.81268904 -2.40979673 -3.81151577 -1.63922736 0 0 Z " fill="#3F261C" transform="translate(517.1611328125,213.929443359375)"/>
<path d="M0 0 C1.01078613 0.57439819 1.01078613 0.57439819 2.04199219 1.16040039 C3.23743652 1.82773193 3.23743652 1.82773193 4.45703125 2.50854492 C5.32553711 3.00338379 6.19404297 3.49822266 7.08886719 4.00805664 C9.06679313 5.11054594 11.04604959 6.21065035 13.02636719 7.30883789 C14.11175781 7.91163574 15.19714844 8.51443359 16.31542969 9.13549805 C22.85820133 12.74515181 29.48022139 16.20858697 36.08886719 19.69555664 C37.5413965 20.46311141 38.99387 21.23077179 40.44628906 21.99853516 C44.90967424 24.35740617 49.37417342 26.71416357 53.83886719 29.07055664 C71.6888982 38.49151397 89.5327554 47.91325519 107.22070312 57.63647461 C110.07052185 59.19744395 112.92670771 60.74630036 115.78417969 62.29321289 C116.77579102 62.83091309 117.76740234 63.36861328 118.7890625 63.92260742 C120.67023616 64.94233545 122.55232472 65.96037845 124.43554688 66.97631836 C139.33870094 75.07022415 139.33870094 75.07022415 140.83886719 78.07055664 C140.98131569 80.03917615 141.06081089 82.01246951 141.11108398 83.9855957 C141.14328537 85.22738586 141.17548676 86.46917603 141.20866394 87.74859619 C141.31047416 92.68750556 141.38550364 97.6268233 141.43912029 102.56648636 C141.48010161 106.31604497 141.54046932 110.06299326 141.64819336 113.8112793 C141.7520775 117.43839626 141.8065388 121.06318642 141.82657814 124.6917038 C141.84248817 126.07143597 141.87567115 127.45108491 141.92673302 128.82996368 C142.07683295 133.08747172 142.0670991 136.9744659 140.83886719 141.07055664 C137.8494164 144.02139713 134.70162803 145.51749006 130.83886719 147.07055664 C129.74574219 147.69704102 128.65261719 148.32352539 127.52636719 148.96899414 C126.63949219 149.45625977 125.75261719 149.94352539 124.83886719 150.44555664 C123.93136719 150.94829102 123.02386719 151.45102539 122.08886719 151.96899414 C119.83886719 153.07055664 119.83886719 153.07055664 117.83886719 153.07055664 C116.85243081 147.94771898 116.52919666 142.89306735 116.27636719 137.69555664 C116.23318359 136.86411133 116.19 136.03266602 116.14550781 135.17602539 C116.04024914 133.14102436 115.93913646 131.10580961 115.83886719 129.07055664 C110.58342896 131.08088932 105.61713351 133.06707495 100.83886719 136.07055664 C99.17907013 136.75414713 97.5130584 137.42301822 95.83886719 138.07055664 C95.91854736 138.88621094 95.99822754 139.70186523 96.08032227 140.54223633 C97.90199486 163.1444111 97.90199486 163.1444111 92.92382812 169.52514648 C87.25212786 174.08115906 80.58949534 176.54391511 73.83886719 179.07055664 C71.67769073 180.10148983 69.52777367 181.15719225 67.40136719 182.25805664 C66.06332031 182.90194336 66.06332031 182.90194336 64.69824219 183.55883789 C59.78940157 186.1540856 55.20282824 189.24893088 50.57714844 192.31274414 C47.83886719 194.07055664 47.83886719 194.07055664 46.83886719 194.07055664 C46.83886719 184.83055664 46.83886719 175.59055664 46.83886719 166.07055664 C43.06449219 167.95774414 43.06449219 167.95774414 39.21386719 169.88305664 C34.92480469 172.02758789 34.92480469 172.02758789 32.82617188 173.07299805 C31.02340304 173.97792599 29.2312519 174.90392963 27.44042969 175.83227539 C24.83886719 177.07055664 24.83886719 177.07055664 22.83886719 177.07055664 C22.93312988 178.33331421 22.93312988 178.33331421 23.02929688 179.62158203 C23.23493404 182.77273299 23.38468148 185.92045717 23.49804688 189.07617188 C23.55809112 190.43604489 23.63977915 191.79515231 23.74414062 193.15234375 C24.08339423 197.68071419 24.12679041 201.69760046 22.83886719 206.07055664 C19.25046826 209.46395282 15.35525483 211.18129886 10.83886719 213.07055664 C8.84765478 214.15284951 6.86631932 215.25378792 4.90136719 216.38305664 C1.55433951 218.22568877 -1.57792997 219.6372755 -5.16113281 221.07055664 C-5.49113281 200.61055664 -5.82113281 180.15055664 -6.16113281 159.07055664 C-11.77113281 156.10055664 -17.38113281 153.13055664 -23.16113281 150.07055664 C-31.22363281 145.32055664 -31.22363281 145.32055664 -33.54418945 143.93676758 C-40.66881657 139.6972898 -47.98095227 135.81320586 -55.28515625 131.89453125 C-61.25890324 128.67764289 -67.15388141 125.37032719 -72.97363281 121.88305664 C-79.50961714 117.96790621 -86.17927791 114.39149533 -92.94238281 110.88574219 C-99.33991122 107.55023989 -105.57567777 103.98143996 -111.79833984 100.33227539 C-119.88030235 95.61015494 -128.101107 91.1533721 -136.33300781 86.69946289 C-140.30943243 84.54543648 -144.24559097 82.33322631 -148.16113281 80.07055664 C-148.16113281 78.09055664 -148.16113281 76.11055664 -148.16113281 74.07055664 C-147.48348877 73.70929688 -146.80584473 73.34803711 -146.10766602 72.97583008 C-134.29267851 66.66839387 -122.50582579 60.3398649 -110.91113281 53.63305664 C-104.36899081 49.85089032 -97.80241149 46.34096343 -91.00488281 43.03930664 C-85.81848504 40.44610775 -80.81840198 37.51009133 -75.78613281 34.63305664 C-68.54622695 30.49588394 -61.28160247 26.53292437 -53.78857422 22.8762207 C-49.32580229 20.686591 -44.98111094 18.34172375 -40.66113281 15.88305664 C-39.35125794 15.14213417 -38.04136111 14.4012505 -36.73144531 13.66040039 C-34.22313765 12.2408511 -31.71742553 10.81708315 -29.21484375 9.38745117 C-25.99761503 7.55699297 -22.76801583 5.74999223 -19.53613281 3.94555664 C-17.98829102 3.05574097 -17.98829102 3.05574097 -16.40917969 2.14794922 C-15.42755859 1.60420654 -14.4459375 1.06046387 -13.43457031 0.50024414 C-12.5623584 0.00766113 -11.69014648 -0.48492187 -10.79150391 -0.99243164 C-6.81268904 -2.40979673 -3.81151577 -1.63922736 0 0 Z " fill="#618D33" transform="translate(517.1611328125,213.929443359375)"/>
<path d="M0 0 C0.495 12.375 0.495 12.375 1 25 C4.3 23.02 7.6 21.04 11 19 C12.99090679 17.85898503 14.98885822 16.72995871 17 15.625 C18.36125 14.87089844 18.36125 14.87089844 19.75 14.1015625 C22 13 22 13 24 13 C24 58.54 24 104.08 24 151 C20.04 152.98 16.08 154.96 12 157 C8.7510043 158.80759473 5.52510714 160.6310982 2.3125 162.5 C-5.48764759 166.99864032 -13.32191773 171.42931401 -21.1875 175.8125 C-30.85515344 181.20891947 -40.46377985 186.70073693 -50.04638672 192.24658203 C-57.52617982 196.57522295 -65.01862145 200.88073884 -72.52337646 205.16589355 C-74.29853222 206.17952426 -76.07336221 207.19372344 -77.84814453 208.20800781 C-83.26598606 211.30282884 -88.68714071 214.39148339 -94.1171875 217.46484375 C-95.06295654 218.00149658 -96.00872559 218.53814941 -96.9831543 219.09106445 C-98.7095717 220.07030798 -100.43745516 221.04697438 -102.16723633 222.02026367 C-106.98106181 224.75376262 -111.51057095 227.68593267 -115.96801758 230.97412109 C-118 232 -118 232 -122 231 C-122 186.45 -122 141.9 -122 96 C-121.34 96 -120.68 96 -120 96 C-119.505 95.01 -119.505 95.01 -119 94 C-113.23796166 89.40791869 -106.57880048 86.07458257 -100.05419922 82.71630859 C-97.37539442 81.32752889 -95.14791996 80.14791996 -93 78 C-92.02380304 74.2727025 -91.98158923 70.77930183 -92.11328125 66.9609375 C-92.14357422 66.05085938 -92.17386719 65.14078125 -92.20507812 64.203125 C-92.27702086 62.30906891 -92.36835226 60.41565532 -92.47851562 58.5234375 C-92.54769277 55.8909667 -92.55226392 53.57618244 -92 51 C-89.10546875 48.41796875 -89.10546875 48.41796875 -86 47 C-85.34 46.649375 -84.68 46.29875 -84 45.9375 C-82.32017471 45.1500819 -80.62996045 44.3848802 -78.9375 43.625 C-75.97519994 41.98628082 -74.93302188 40.66941116 -73 38 C-72.01 38 -71.02 38 -70 38 C-69.67 46.91 -69.34 55.82 -69 65 C-66.48375 63.4325 -63.9675 61.865 -61.375 60.25 C-48.9213201 52.57720528 -36.08200363 45.54100181 -23 39 C-22.67 29.43 -22.34 19.86 -22 10 C-18.7 8.35 -15.4 6.7 -12 5 C-10.535625 4.2575 -9.07125 3.515 -7.5625 2.75 C-1.96428571 0 -1.96428571 0 0 0 Z " fill="#7B4324" transform="translate(634,342)"/>
<path d="M0 0 C0.99 0.495 0.99 0.495 2 1 C2.23209854 9.11018596 2.40956785 17.2189772 2.51812172 25.33166695 C2.57023525 29.09926048 2.64085061 32.86457684 2.75439453 36.63085938 C2.86337063 40.26855517 2.92290013 43.90406772 2.94877243 47.54327011 C2.96719705 48.92862211 3.00318432 50.31385929 3.05730057 51.69827652 C3.21773671 55.97419285 3.2196846 59.88169477 2 64 C-0.98747337 66.95802342 -4.13270297 68.44974546 -8 70 C-9.093125 70.62648438 -10.18625 71.25296875 -11.3125 71.8984375 C-12.199375 72.38570313 -13.08625 72.87296875 -14 73.375 C-14.9075 73.87773437 -15.815 74.38046875 -16.75 74.8984375 C-19 76 -19 76 -21 76 C-21.98643638 70.87716234 -22.30967053 65.82251071 -22.5625 60.625 C-22.60568359 59.79355469 -22.64886719 58.96210938 -22.69335938 58.10546875 C-22.79861805 56.07046772 -22.89973072 54.03525297 -23 52 C-28.25543823 54.01033268 -33.22173367 55.99651831 -38 59 C-39.65979705 59.68359049 -41.32580879 60.35246158 -43 61 C-42.92031982 61.8156543 -42.84063965 62.63130859 -42.75854492 63.47167969 C-40.93687233 86.07385446 -40.93687233 86.07385446 -45.91503906 92.45458984 C-51.58673933 97.01060242 -58.24937185 99.47335847 -65 102 C-67.16117646 103.03093319 -69.31109352 104.08663561 -71.4375 105.1875 C-72.77554688 105.83138672 -72.77554688 105.83138672 -74.140625 106.48828125 C-79.04946562 109.08352895 -83.63603894 112.17837424 -88.26171875 115.2421875 C-91 117 -91 117 -92 117 C-92 107.76 -92 98.52 -92 89 C-94.51625 90.258125 -97.0325 91.51625 -99.625 92.8125 C-103.9140625 94.95703125 -103.9140625 94.95703125 -106.01269531 96.00244141 C-107.81546414 96.90736935 -109.60761529 97.83337298 -111.3984375 98.76171875 C-114 100 -114 100 -116 100 C-115.9371582 100.84183838 -115.87431641 101.68367676 -115.80957031 102.55102539 C-115.60393315 105.70217635 -115.45418571 108.84990053 -115.34082031 112.00561523 C-115.28077607 113.36548825 -115.19908804 114.72459567 -115.09472656 116.08178711 C-114.75547296 120.61015754 -114.71207678 124.62704382 -116 129 C-119.58839893 132.39339617 -123.48361236 134.11074222 -128 136 C-129.99121241 137.08229287 -131.97254787 138.18323128 -133.9375 139.3125 C-137.28452767 141.15513213 -140.41679716 142.56671886 -144 144 C-144 123.54 -144 103.08 -144 82 C-138.39 79.03 -132.78 76.06 -127 73 C-120.311895 69.14450417 -113.97487287 64.98493682 -107.6640625 60.5390625 C-105 59 -105 59 -101 59 C-101 58.34 -101 57.68 -101 57 C-99.948125 56.484375 -98.89625 55.96875 -97.8125 55.4375 C-92.71454502 52.90225129 -87.7409747 50.14234798 -82.7578125 47.390625 C-80 46 -80 46 -78 46 C-78 45.34 -78 44.68 -78 44 C-77.31679688 43.63390625 -76.63359375 43.2678125 -75.9296875 42.890625 C-55.03884283 31.67047825 -34.24153491 20.27962009 -13.625 8.5625 C-12.72644287 8.05396484 -11.82788574 7.54542969 -10.90209961 7.02148438 C-9.63958374 6.3012207 -9.63958374 6.3012207 -8.3515625 5.56640625 C-7.60729004 5.14302979 -6.86301758 4.71965332 -6.09619141 4.28344727 C-3.95676578 2.97352873 -1.98163268 1.53619928 0 0 Z " fill="#4C6B36" transform="translate(656,291)"/>
<path d="M0 0 C5.61737952 1.1234759 5.61737952 1.1234759 8.71484375 3.0390625 C9.39353516 3.45091797 10.07222656 3.86277344 10.77148438 4.28710938 C11.84366211 4.94936523 11.84366211 4.94936523 12.9375 5.625 C18.20580538 8.80765235 23.45975746 11.81654533 29 14.5 C35.02360648 17.43263584 40.74112512 20.7380265 46.48803711 24.17675781 C51.27301153 27.02474035 56.1181389 29.69018287 61.0625 32.25 C67.98764221 35.84528007 74.71868041 39.72129579 81.4375 43.6875 C91.07905387 49.37516765 100.8586081 54.74492449 110.73730469 60.00805664 C118.97553686 64.41049486 127.06790818 69.01174537 135.05737305 73.85009766 C138.01749015 75.6022846 141.01338843 77.29336482 144 79 C144 99.46 144 119.92 144 141 C138.37978403 139.87595681 138.37978403 139.87595681 135.42578125 138.06640625 C134.76707031 137.6696167 134.10835937 137.27282715 133.4296875 136.86401367 C132.73101562 136.43451416 132.03234375 136.00501465 131.3125 135.5625 C129.79933509 134.65171915 128.28497045 133.74292914 126.76953125 132.8359375 C125.98787598 132.36768555 125.2062207 131.89943359 124.40087891 131.41699219 C120.47490602 129.09989369 116.49084558 126.89043331 112.5 124.6875 C111.78368408 124.29183838 111.06736816 123.89617676 110.3293457 123.48852539 C108.21999333 122.32490463 106.10999675 121.16245191 104 120 C101.03 118.35 98.06 116.7 95 115 C95 106.09 95 97.18 95 88 C92.36 86.68 89.72 85.36 87 84 C85.64202342 83.29373611 84.28674297 82.58218374 82.9375 81.859375 C82.05384766 81.38709473 82.05384766 81.38709473 81.15234375 80.90527344 C80.44207031 80.5240332 79.73179687 80.14279297 79 79.75 C76.69 78.5125 74.38 77.275 72 76 C72 84.58 72 93.16 72 102 C67.9987997 101.19975994 66.00987293 100.67197674 62.64453125 98.78515625 C61.85755859 98.34623047 61.07058594 97.90730469 60.25976562 97.45507812 C59.45216797 96.99552734 58.64457031 96.53597656 57.8125 96.0625 C56.99330078 95.60681641 56.17410156 95.15113281 55.33007812 94.68164062 C49.28148496 91.28148496 49.28148496 91.28148496 47 89 C46.77294922 86.20263672 46.77294922 86.20263672 46.8046875 82.6796875 C46.81113281 81.42285156 46.81757813 80.16601562 46.82421875 78.87109375 C46.84097656 77.55238281 46.85773438 76.23367188 46.875 74.875 C46.88503017 73.53516279 46.89415596 72.19531848 46.90234375 70.85546875 C46.92597925 67.57013427 46.95892766 64.28515535 47 61 C46.09427246 60.71463379 45.18854492 60.42926758 44.25537109 60.13525391 C41.58433403 59.2037763 39.35124324 58.23431989 36.9140625 56.8359375 C36.27936035 56.4754834 35.6446582 56.1150293 34.99072266 55.74365234 C34.21003418 55.29199707 33.4293457 54.8403418 32.625 54.375 C28.850625 52.209375 28.850625 52.209375 25 50 C24.67 58.25 24.34 66.5 24 75 C15.51471863 72.17157288 7.81870037 67.34372243 0 63 C0 42.21 0 21.42 0 0 Z " fill="#2B4B29" transform="translate(368,294)"/>
<path d="M0 0 C2.805 -0.04125 5.61 -0.0825 8.5 -0.125 C9.36689453 -0.14320801 10.23378906 -0.16141602 11.12695312 -0.18017578 C23.70524633 -0.26855454 33.67508945 4.03242154 42.765625 12.62890625 C49.34174354 19.60740967 52.25270878 26.73557572 52.23950195 36.37890625 C52.24151611 37.09190887 52.24353027 37.8049115 52.24560547 38.53952026 C52.24913415 40.07817193 52.24840475 41.61683815 52.24382973 43.15548706 C52.23820831 45.59414253 52.24744022 48.03232739 52.2610321 50.47094727 C52.29804833 57.40090129 52.31669249 64.33069191 52.30541992 71.26074219 C52.29955948 75.5083954 52.31786925 79.75538193 52.35130882 84.00289917 C52.35924513 85.61675147 52.35800982 87.23067677 52.34728432 88.84451294 C52.33290863 91.10410797 52.34927253 93.36161325 52.37231445 95.62109375 C52.37294388 96.9042749 52.3735733 98.18745605 52.3742218 99.50952148 C53.26996478 104.5058151 55.69897738 107.34674425 59.859375 110.3359375 C62.97886088 111.30366122 65.99496754 111.44416486 69.25 111.625 C70.51328125 111.69976562 71.7765625 111.77453125 73.078125 111.8515625 C74.52445313 111.92503906 74.52445313 111.92503906 76 112 C76.02886751 116.14581887 76.04675327 120.29161216 76.0625 124.4375 C76.07087891 125.62150391 76.07925781 126.80550781 76.08789062 128.02539062 C76.09111328 129.15009766 76.09433594 130.27480469 76.09765625 131.43359375 C76.10289307 132.47572021 76.10812988 133.51784668 76.11352539 134.59155273 C76 137 76 137 75 138 C71.50689674 138.24689473 68.01457982 138.38435771 64.515625 138.5234375 C60.84480683 139.0210373 58.9271188 139.77833789 56 142 C53.57126897 145.64309654 53.74387605 147.3749812 53.72875977 151.71533203 C53.72091965 152.73305946 53.72091965 152.73305946 53.71292114 153.77134705 C53.70268331 155.24454563 53.69690111 156.71778036 53.69503975 158.19101334 C53.69137233 160.52943959 53.67463247 162.8674431 53.65428162 165.20578003 C53.59892854 171.85422868 53.56830114 178.5027413 53.54370117 185.15136719 C53.52773942 189.22039406 53.49742314 193.28912514 53.45893669 197.35799789 C53.44735351 198.90237132 53.44135693 200.44679789 53.44125557 201.99121475 C53.44005775 215.39452697 51.48360085 226.71171088 42.18359375 237.01171875 C32.58493581 245.95107493 21.37986767 249.3955251 8.5 249.125 C4.2925 249.063125 4.2925 249.063125 0 249 C0 241.08 0 233.16 0 225 C1.815 224.9175 3.63 224.835 5.5 224.75 C11.88650492 224.19334351 17.11776474 223.16325319 21.5625 218.28515625 C25.11684516 213.50900494 26.12349519 209.8391765 26.12597656 203.85131836 C26.12978333 202.58247299 26.13359009 201.31362762 26.13751221 200.0063324 C26.13770607 199.32798277 26.13789993 198.64963314 26.13809967 197.95072746 C26.14152823 195.0848437 26.16291517 192.21918412 26.18333054 189.35337925 C26.22124027 184.02242247 26.25262643 178.6917028 26.25048828 173.3605957 C26.24969589 169.64798163 26.27329087 165.93618695 26.3123703 162.22378731 C26.32275641 160.81700905 26.32440935 159.41013534 26.31671906 158.00333977 C26.26731322 147.95661798 27.4928365 140.41901739 34.02734375 132.5625 C37.86624362 129.42229561 41.04262837 127.11540862 46 126 C43.58986201 124.07188961 41.33272326 122.66029548 38.5625 121.25 C33.63766689 118.42375744 30.97893801 114.85601592 29.13830566 109.48603821 C27.01837962 101.4845022 26.57381044 93.98288794 26.59375 85.73046875 C26.58448703 84.3967412 26.57350631 83.0630246 26.56091309 81.72932434 C26.5184078 76.83908166 26.50688719 71.94886674 26.49468994 67.05847168 C26.4849813 63.56956453 26.46949115 60.08091055 26.43908691 56.59211731 C26.41765442 53.99005127 26.40916843 51.38783714 26.41540527 48.78569031 C26.34648266 40.72850601 26.09267704 35.16296515 20.25 29.1875 C13.68152653 24.76641209 8.02119881 24.80211988 0 24 C0 16.08 0 8.16 0 0 Z " fill="#33434B" transform="translate(688,287)"/>
<path d="M0 0 C0 7.92 0 15.84 0 24 C-3.3 24.33 -6.6 24.66 -10 25 C-16.04135787 27.3640096 -19.35934876 29.64610112 -23 35 C-24.66765842 39.19499476 -25.25305401 42.71336535 -25.27124023 47.21386719 C-25.28142685 48.42242371 -25.29161346 49.63098022 -25.30210876 50.87615967 C-25.30424881 52.16999573 -25.30638885 53.46383179 -25.30859375 54.796875 C-25.31971021 56.15440949 -25.33210717 57.51193403 -25.34571838 58.8694458 C-25.40081606 64.60818538 -25.4316918 70.34699469 -25.45629883 76.0859375 C-25.4723003 79.60732173 -25.50264968 83.12836713 -25.54106331 86.64957428 C-25.55816432 88.6223358 -25.558767 90.59521856 -25.5589447 92.5680542 C-25.67039777 102.77158485 -26.67564122 111.6644673 -33.8828125 119.3046875 C-37.50660168 122.20639322 -41.59777726 123.65364616 -46 125 C-45.35933594 125.268125 -44.71867187 125.53625 -44.05859375 125.8125 C-36.26157181 129.34498088 -30.55653633 133.56692124 -27.42895508 141.7409668 C-25.52265144 147.62481621 -25.60551797 153.42197518 -25.65044022 159.55958748 C-25.6643597 161.64212158 -25.6576379 163.72372199 -25.64559937 165.80625916 C-25.61488209 171.71994591 -25.6195047 177.63340243 -25.63964844 183.54711914 C-25.65061599 187.18227541 -25.63727912 190.8167224 -25.60975266 194.45178032 C-25.60434738 195.82675175 -25.60828519 197.2017957 -25.62215042 198.57670784 C-25.70149044 206.53137957 -25.62559261 212.94735448 -20 219 C-13.84207176 224.41127983 -8.05810389 224.72529191 0 225 C0 232.92 0 240.84 0 249 C-15.32203086 249.34303054 -28.13561351 249.1099401 -40.04296875 238.11328125 C-50.77045193 226.47087413 -52.4403306 212.6935239 -52.44140625 197.41015625 C-52.45320534 195.93329071 -52.46657566 194.45643697 -52.48143005 192.979599 C-52.5173139 189.126138 -52.53773424 185.27278189 -52.55297852 181.41918945 C-52.57799036 175.228437 -52.61752099 169.03791568 -52.67487907 162.84737968 C-52.69115345 160.69361229 -52.69497857 158.54006689 -52.69789124 156.38624573 C-52.70807785 155.08066208 -52.71826447 153.77507843 -52.72875977 152.42993164 C-52.73303482 151.28174454 -52.73730988 150.13355743 -52.74171448 148.95057678 C-52.99601558 146.04551686 -53.41229338 144.41548694 -55 142 C-58.83148044 139.02448859 -61.96876703 138.58052811 -66.75 138.375 C-72.91529412 138.08470588 -72.91529412 138.08470588 -74 137 C-74.08737645 135.14630389 -74.10698153 133.28932459 -74.09765625 131.43359375 C-74.09443359 130.30888672 -74.09121094 129.18417969 -74.08789062 128.02539062 C-74.07951172 126.84138672 -74.07113281 125.65738281 -74.0625 124.4375 C-74.05798828 123.24962891 -74.05347656 122.06175781 -74.04882812 120.83789062 C-74.03699675 117.89187774 -74.02051287 114.94596319 -74 112 C-73.17508057 111.94376465 -72.35016113 111.8875293 -71.50024414 111.82958984 C-70.41864014 111.74918457 -69.33703613 111.6687793 -68.22265625 111.5859375 C-67.15023682 111.50907715 -66.07781738 111.4322168 -64.97290039 111.35302734 C-60.68765333 110.84416085 -57.7852824 109.32422275 -54.3717041 106.79222107 C-52.33727154 104.13410194 -52.62117372 102.0165415 -52.61523438 98.69946289 C-52.60512329 97.3970314 -52.59501221 96.09459991 -52.58459473 94.75270081 C-52.58615067 94.05599337 -52.5877066 93.35928593 -52.58930969 92.64146614 C-52.5937982 90.44911248 -52.57975368 88.25756191 -52.56091309 86.06529236 C-52.52411373 81.39770827 -52.51044794 76.73020767 -52.5 72.0625 C-52.48786393 66.6807812 -52.46589516 61.29945149 -52.41999817 55.91790581 C-52.40659481 53.77771362 -52.41057095 51.63803444 -52.41540527 49.49781799 C-52.35903007 35.25745583 -49.80146641 21.86353817 -39.8125 11.1875 C-28.01645111 0.1152551 -15.29521624 -0.25706246 0 0 Z " fill="#33434A" transform="translate(336,287)"/>
<path d="M0 0 C8.8275 -0.0825 17.655 -0.165 26.75 -0.25 C29.51213867 -0.28641602 32.27427734 -0.32283203 35.12011719 -0.36035156 C37.34569526 -0.37205015 39.57128198 -0.38223919 41.796875 -0.390625 C42.92303223 -0.41108887 44.04918945 -0.43155273 45.20947266 -0.45263672 C56.47638005 -0.45752051 65.98602296 1.87464925 74.16015625 9.9453125 C81.75569234 18.42780078 82.33210668 28.6456523 81.875 39.75 C81.32563684 45.89402702 80.22540841 50.73803565 77 56 C76.5771875 56.70769531 76.154375 57.41539062 75.71875 58.14453125 C73.07342291 62.10517375 70.51919112 64.50397557 66.29296875 66.734375 C65.48754639 67.16459961 64.68212402 67.59482422 63.85229492 68.03808594 C63.2410376 68.35551758 62.62978027 68.67294922 62 69 C63.97825189 72.35470696 65.9576714 75.70872333 67.9375 79.0625 C68.52490967 80.05789795 69.11231934 81.0532959 69.7175293 82.07885742 C73.59356533 88.64005138 77.49334166 95.18595794 81.45874023 101.69360352 C84 105.8920756 84 105.8920756 84 107 C63.76629648 109.33770126 63.76629648 109.33770126 58.17333984 105.86621094 C55.17149221 102.60035716 53.67032856 98.54748541 52.06494141 94.46679688 C49.96516225 89.60293428 47.12099194 85.12141331 44.4375 80.5625 C43.39118061 78.73238032 42.34793067 76.90050032 41.30859375 75.06640625 C40.54675781 73.72449219 39.78492188 72.38257813 39 71 C33.39 71 27.78 71 22 71 C21.67 82.88 21.34 94.76 21 107 C14.07 107 7.14 107 0 107 C0 71.69 0 36.38 0 0 Z " fill="#EEE8DA" transform="translate(372,631)"/>
<path d="M0 0 C6.61613453 -0.07669318 13.23215246 -0.12886703 19.84863281 -0.16479492 C22.09477014 -0.17978852 24.34087866 -0.2001902 26.58691406 -0.22631836 C29.83405715 -0.26311931 33.08080985 -0.27982116 36.328125 -0.29296875 C37.31613098 -0.30845261 38.30413696 -0.32393646 39.32208252 -0.33988953 C49.85584258 -0.34237562 59.97186184 1.25891604 67.8046875 8.71875 C75.98575362 17.27322577 77.31827138 27.58342393 77.14453125 39.09765625 C76.63865404 49.25621751 74.53739015 55.56149182 67.25 62.71875 C58.09966919 70.49653119 46.17804928 70.42753152 34.75 70.1875 C30.5425 70.125625 26.335 70.06375 22 70 C22 82.21 22 94.42 22 107 C18.926875 107.103125 15.85375 107.20625 12.6875 107.3125 C11.72287842 107.35802002 10.75825684 107.40354004 9.7644043 107.45043945 C8.61838745 107.46917114 8.61838745 107.46917114 7.44921875 107.48828125 C6.66893311 107.51446533 5.88864746 107.54064941 5.0847168 107.56762695 C3 107 3 107 1.39099121 105.08520508 C-0.58189145 100.70937039 -0.395289 96.81608117 -0.34057617 92.0690918 C-0.34101425 91.07349747 -0.34145233 90.07790314 -0.34190369 89.05213928 C-0.33981686 85.76763164 -0.31649028 82.48363702 -0.29296875 79.19921875 C-0.28737243 76.91950255 -0.2831025 74.63978274 -0.28010559 72.36006165 C-0.2686597 66.36439018 -0.23919445 60.36893726 -0.20599365 54.37335205 C-0.17528742 48.25348873 -0.16159905 42.13359005 -0.14648438 36.01367188 C-0.11432473 24.00901864 -0.06313124 12.00452751 0 0 Z " fill="#EDE7D8" transform="translate(190,631)"/>
<path d="M0 0 C6.77686249 -0.07659074 13.55361175 -0.12882507 20.33081055 -0.16479492 C22.63228527 -0.17980349 24.93373177 -0.20021673 27.23510742 -0.22631836 C30.55915325 -0.26305213 33.88281819 -0.27980624 37.20703125 -0.29296875 C38.72959282 -0.31619453 38.72959282 -0.31619453 40.28291321 -0.33988953 C52.03521197 -0.34260635 60.98236846 2.23888763 69.49609375 10.44140625 C77.73016647 19.40848247 77.4348435 31.57654385 77 43 C76.27924424 51.83811975 72.89367964 56.99507237 66.8125 63.25 C56.36250447 69.75221944 44.93276096 70.10649806 33 70.5625 C29.37 70.706875 25.74 70.85125 22 71 C21.67 82.88 21.34 94.76 21 107 C15.39 107 9.78 107 4 107 C0 103 0 103 -0.49219131 100.89921951 C-0.48850414 100.14334927 -0.48481697 99.38747902 -0.48101807 98.60870361 C-0.48926605 97.30046883 -0.48926605 97.30046883 -0.49768066 95.96580505 C-0.48329956 95.01706009 -0.46891846 94.06831512 -0.45410156 93.09082031 C-0.45497772 91.5830175 -0.45497772 91.5830175 -0.45587158 90.04475403 C-0.45308485 86.72219309 -0.42196404 83.40052922 -0.390625 80.078125 C-0.38316473 77.77456146 -0.37747079 75.47099158 -0.37347412 73.16741943 C-0.35820107 67.10425293 -0.31890433 61.04146967 -0.2746582 54.97845459 C-0.23374185 48.79167872 -0.21547084 42.60484092 -0.1953125 36.41796875 C-0.15241213 24.27847745 -0.08414017 12.13927059 0 0 Z " fill="#EFE8DA" transform="translate(568,631)"/>
<path d="M0 0 C0.9583374 0.00523682 1.9166748 0.01047363 2.90405273 0.01586914 C4.45576172 0.02070312 4.45576172 0.02070312 6.03881836 0.02563477 C7.12743164 0.03401367 8.21604492 0.04239258 9.33764648 0.05102539 C10.97636719 0.05779297 10.97636719 0.05779297 12.64819336 0.06469727 C15.35723144 0.07652713 18.06616248 0.09300996 20.77514648 0.11352539 C23.56984902 6.97939717 26.2065177 13.88738374 28.71264648 20.86352539 C29.09106689 21.91499756 29.4694873 22.96646973 29.859375 24.04980469 C33.6994635 34.78846601 37.37638993 45.58215317 41.04672241 56.37976074 C43.90706934 64.79443282 46.78029508 73.20178896 49.79467773 81.56274414 C50.14646339 82.53918633 50.14646339 82.53918633 50.50535583 83.53535461 C51.59262096 86.54739912 52.68786241 89.55628449 53.79248047 92.56201172 C54.173479 93.61026123 54.55447754 94.65851074 54.94702148 95.73852539 C55.27798828 96.63829102 55.60895508 97.53805664 55.94995117 98.46508789 C56.77514648 101.11352539 56.77514648 101.11352539 57.77514648 107.11352539 C50.51514648 107.11352539 43.25514648 107.11352539 35.77514648 107.11352539 C33.11681845 101.13228732 31.09619786 96.21965062 29.48608398 90.08227539 C28.96060154 87.91901818 28.96060154 87.91901818 26.77514648 87.11352539 C24.00354022 87.02669094 21.25739884 86.99796749 18.48608398 87.01586914 C17.66766022 87.01728409 16.84923645 87.01869904 16.00601196 87.02015686 C13.38735324 87.02576249 10.76877945 87.03831591 8.15014648 87.05102539 C6.37671022 87.05603967 4.60327261 87.0606027 2.82983398 87.06469727 C-1.52176133 87.07573375 -5.87329301 87.09300214 -10.22485352 87.11352539 C-10.61882324 88.09844971 -10.61882324 88.09844971 -11.02075195 89.10327148 C-13.42211914 95.10668945 -15.82348633 101.11010742 -18.22485352 107.11352539 C-25.15485352 107.11352539 -32.08485352 107.11352539 -39.22485352 107.11352539 C-38.09982811 100.36337298 -38.09982811 100.36337298 -37.02905273 97.26147461 C-36.79145233 96.56569305 -36.55385193 95.8699115 -36.30905151 95.15304565 C-36.05181305 94.41555084 -35.79457458 93.67805603 -35.52954102 92.91821289 C-35.12374313 91.73692307 -35.12374313 91.73692307 -34.70974731 90.5317688 C-33.8442055 88.0158045 -32.97210263 85.50217115 -32.09985352 82.98852539 C-31.53693033 81.35455654 -30.974427 79.72044298 -30.41235352 78.08618164 C-24.15840749 59.92672362 -17.79026597 41.80700249 -11.34301758 23.71533203 C-10.66895009 21.82220985 -9.99614066 19.92863934 -9.32446289 18.03466797 C-8.33824916 15.25398839 -7.3483964 12.47462966 -6.35766602 9.69555664 C-6.05667999 8.84476028 -5.75569397 7.99396393 -5.44558716 7.11738586 C-2.95378972 0.15072009 -2.95378972 0.15072009 0 0 Z " fill="#EDE7D9" transform="translate(302.224853515625,630.886474609375)"/>
<path d="M0 0 C6.93 0 13.86 0 21 0 C21 14.52 21 29.04 21 44 C24.16154189 40.83845811 26.66536689 38.31755899 29.19921875 34.8125 C29.76390869 34.03745117 30.32859863 33.26240234 30.91040039 32.46386719 C31.7900647 31.24425293 31.7900647 31.24425293 32.6875 30 C33.9285783 28.29606655 35.1707716 26.59294468 36.4140625 24.890625 C37.0215332 24.05853516 37.62900391 23.22644531 38.25488281 22.36914062 C41.36865457 18.14193845 44.58825437 13.9994658 47.81640625 9.859375 C49.94863479 7.2575913 49.94863479 7.2575913 50.93579102 5.10327148 C52.11394541 2.9125068 53.03778753 1.5461505 55 0 C59.29640436 -0.8708462 63.45169469 -0.65981556 67.8125 -0.4375 C68.98232422 -0.40591797 70.15214844 -0.37433594 71.35742188 -0.34179688 C74.24083837 -0.25941355 77.11913487 -0.14444007 80 0 C75.00566152 8.24673064 69.42636019 15.71725613 63.40966797 23.23144531 C59.53157704 28.09685763 55.75427918 33.03876136 52 38 C50.90365234 39.43279297 50.90365234 39.43279297 49.78515625 40.89453125 C48.80869141 42.21517578 48.80869141 42.21517578 47.8125 43.5625 C47.24144531 44.32691406 46.67039062 45.09132813 46.08203125 45.87890625 C44.81120446 47.87924906 44.81120446 47.87924906 45.22949219 49.82446289 C46.19275846 52.5442556 47.58338087 54.57003844 49.24609375 56.9296875 C49.91358643 57.88286865 50.5810791 58.8360498 51.26879883 59.81811523 C51.98447021 60.82688721 52.7001416 61.83565918 53.4375 62.875 C54.16670654 63.91277588 54.89591309 64.95055176 55.6472168 66.01977539 C60.26581853 72.58321307 64.93018228 79.11361889 69.60546875 85.63671875 C72.47373595 89.65472872 75.30779057 93.69605505 78.125 97.75 C78.61137939 98.44279053 79.09775879 99.13558105 79.59887695 99.84936523 C83 104.76881375 83 104.76881375 83 107 C60.90986329 109.04538303 60.90986329 109.04538303 54.89990234 105.90136719 C51.16334078 102.62463772 49.14870335 98.41329183 47 94 C45.85439584 92.17411434 44.68884657 90.36052981 43.5 88.5625 C42.96246094 87.69109375 42.42492187 86.8196875 41.87109375 85.921875 C38.15431357 80.11780073 34.04640431 74.57703612 30 69 C27.06988123 69.3139413 26.02347454 69.97674625 23.89746094 72.08276367 C21.50382017 75.76284777 21.46024793 78.11944264 21.390625 82.48828125 C21.37408875 83.19147995 21.35755249 83.89467865 21.34051514 84.6191864 C21.2921906 86.85038112 21.2707009 89.0808952 21.25 91.3125 C21.22182698 92.83141417 21.19189768 94.35029684 21.16015625 95.86914062 C21.08314773 99.57973528 21.0424933 103.28820992 21 107 C14.73 107 8.46 107 2 107 C0.18368215 103.36736429 -0.24966095 102.36099063 -0.24050903 98.60870361 C-0.24325836 97.73654709 -0.24600769 96.86439056 -0.24884033 95.96580505 C-0.24164978 95.01706009 -0.23445923 94.06831512 -0.22705078 93.09082031 C-0.22734283 92.08561844 -0.22763489 91.08041656 -0.22793579 90.04475403 C-0.22654254 86.72245652 -0.21098133 83.40038333 -0.1953125 80.078125 C-0.19158236 77.77455772 -0.18873539 75.47098886 -0.18673706 73.16741943 C-0.1791007 67.1043866 -0.15945209 61.04144957 -0.1373291 54.97845459 C-0.11687079 48.79163916 -0.10773537 42.60480825 -0.09765625 36.41796875 C-0.07620627 24.27859696 -0.04102401 12.13932144 0 0 Z " fill="#EEE8DA" transform="translate(473,631)"/>
<path d="M0 0 C5.3376031 4.44612182 9.52272809 10.66894382 11.5625 17.3125 C11.5625 19.9525 11.5625 22.5925 11.5625 25.3125 C4.9625 25.3125 -1.6375 25.3125 -8.4375 25.3125 C-9.7575 22.6725 -11.0775 20.0325 -12.4375 17.3125 C-18.31366123 12.43653643 -24.97135538 12.19966154 -32.4375 12.3125 C-35.02077976 12.71806611 -36.98146329 13.35144216 -39.4375 14.3125 C-40.4275 14.6425 -41.4175 14.9725 -42.4375 15.3125 C-44.79568018 19.40828664 -45.13956222 23.70697186 -44.4375 28.3125 C-42.41118303 32.5581165 -39.79807344 33.71774668 -35.55859375 35.23828125 C-28.34823298 37.77796537 -20.97813817 39.68092016 -13.578125 41.58007812 C-3.15009206 44.37924913 5.41979512 48.09011924 11.5625 57.3125 C15.67898243 65.42826963 15.5172686 74.47106737 13.3125 83.15234375 C10.9866855 89.85117405 6.69904085 95.70575827 0.5625 99.3125 C-13.79563708 105.88464246 -31.83149393 107.02367644 -46.96875 102.34765625 C-55.73209203 98.67315366 -63.57442971 92.26656676 -67.375 83.375 C-68.4375 79.3125 -68.4375 79.3125 -68.4375 70.3125 C-62.1675 70.3125 -55.8975 70.3125 -49.4375 70.3125 C-48.4475 72.9525 -47.4575 75.5925 -46.4375 78.3125 C-43.24030856 82.53736011 -38.62321752 84.83024775 -33.41992188 85.61791992 C-31.2915278 85.74981403 -29.19470584 85.7799804 -27.0625 85.75 C-26.31661621 85.74315186 -25.57073242 85.73630371 -24.80224609 85.72924805 C-19.08807265 85.5629428 -14.13726836 84.81159761 -9.4375 81.3125 C-6.83888827 78.39890503 -6.48979131 76.67853917 -5.9375 72.8125 C-6.58445125 68.28384127 -7.95649108 67.21334077 -11.4375 64.3125 C-13.95263688 63.26499943 -16.212279 62.46073129 -18.8125 61.75 C-19.51149414 61.54366943 -20.21048828 61.33733887 -20.93066406 61.12475586 C-24.40159343 60.11337732 -27.88912696 59.18839584 -31.3984375 58.3203125 C-43.33733055 55.34174331 -55.64233751 51.60645168 -62.49414062 40.61791992 C-65.3580012 35.47835842 -66.07997803 31.21099974 -65.9375 25.375 C-65.92614014 24.58448242 -65.91478027 23.79396484 -65.90307617 22.97949219 C-65.60473387 14.0273757 -62.83689177 7.71189177 -56.4375 1.3125 C-41.92705079 -10.55968572 -15.22502466 -10.2740298 0 0 Z " fill="#EDE7D9" transform="translate(160.4375,635.6875)"/>
<path d="M0 0 C21.78 0 43.56 0 66 0 C66 6.27 66 12.54 66 19 C51.15 19 36.3 19 21 19 C21.33 26.92 21.66 34.84 22 43 C41.8 43.495 41.8 43.495 62 44 C62 49.94 62 55.88 62 62 C48.8 62.33 35.6 62.66 22 63 C22 71.25 22 79.5 22 88 C43.78 88.495 43.78 88.495 66 89 C66 94.94 66 100.88 66 107 C44.22 107 22.44 107 0 107 C0 71.69 0 36.38 0 0 Z " fill="#EEE8DA" transform="translate(796,631)"/>
<path d="M0 0 C19.3938554 -2.67944614 19.3938554 -2.67944614 24.94189453 1.44287109 C28.19662909 5.37658377 30.11640028 9.96418246 32.01025391 14.66845703 C33.56127014 18.32218298 35.59281512 21.66078951 37.625 25.0625 C38.751133 27.04102221 39.87659814 29.01992577 41 31 C44.5709483 26.89583318 46.93744019 22.56545907 49.375 17.75 C50.48009202 15.56744327 51.59789677 13.40001204 52.77197266 11.25366211 C53.6286204 9.68155172 54.4375528 8.082907 55.20849609 6.46704102 C56.60923636 3.8727842 57.81014844 1.98140044 60 0 C64.01624839 -1.08058157 67.75359722 -0.85942372 71.875 -0.5625 C72.94492187 -0.52189453 74.01484375 -0.48128906 75.1171875 -0.43945312 C77.74947927 -0.3336914 80.37237237 -0.18614218 83 0 C78.6585081 8.06075371 74.15144189 16.01538973 69.5625 23.9375 C68.93279297 25.02740234 68.30308594 26.11730469 67.65429688 27.24023438 C67.02716797 28.32498047 66.40003906 29.40972656 65.75390625 30.52734375 C65.13918457 31.59710449 64.52446289 32.66686523 63.89111328 33.76904297 C62.60336517 35.96915381 61.28246811 38.15011904 59.93310547 40.31298828 C59.2835791 41.36599121 58.63405273 42.41899414 57.96484375 43.50390625 C57.07526978 44.91071655 57.07526978 44.91071655 56.16772461 46.34594727 C54.76513424 49.53381259 54.87882345 50.74184167 56 54 C57.16677893 56.53900128 57.16677893 56.53900128 58.66796875 59.11328125 C59.22524658 60.10303955 59.78252441 61.09279785 60.35668945 62.11254883 C60.96085693 63.16853271 61.56502441 64.2245166 62.1875 65.3125 C63.11405396 66.95158325 63.11405396 66.95158325 64.05932617 68.6237793 C67.33050897 74.39059733 70.65033173 80.12664689 74.0078125 85.84375 C74.96457886 87.47316528 74.96457886 87.47316528 75.94067383 89.13549805 C77.1693786 91.22094676 78.40342526 93.30325921 79.64331055 95.38208008 C80.47922729 96.79589966 80.47922729 96.79589966 81.33203125 98.23828125 C81.82421143 99.06368408 82.3163916 99.88908691 82.82348633 100.73950195 C83.92155482 102.84927913 84.54509773 104.6761659 85 107 C81.27142795 107.17471382 77.54391041 107.28098726 73.8125 107.375 C72.75740234 107.42527344 71.70230469 107.47554687 70.61523438 107.52734375 C69.59365234 107.54667969 68.57207031 107.56601562 67.51953125 107.5859375 C66.58214111 107.6173584 65.64475098 107.6487793 64.67895508 107.68115234 C59.66741785 106.4069166 57.5242674 101.85255522 54.96362305 97.68847656 C54.30617166 96.50963532 53.65574241 95.32685539 53.01171875 94.140625 C52.66365677 93.51017273 52.31559479 92.87972046 51.95698547 92.23016357 C51.23049586 90.91085017 50.50715147 89.58980023 49.78686523 88.26708984 C48.68055108 86.23725028 47.56273954 84.21406436 46.44335938 82.19140625 C45.73629705 80.90402023 45.02989267 79.61627259 44.32421875 78.328125 C43.98992355 77.7229303 43.65562836 77.1177356 43.311203 76.49420166 C41 72.23119115 41 72.23119115 41 70 C40.34 70 39.68 70 39 70 C38.59467041 71.31206421 38.59467041 71.31206421 38.18115234 72.65063477 C37.05465315 75.84502139 35.72531296 78.62291169 34.1015625 81.58984375 C33.53953125 82.62173828 32.9775 83.65363281 32.3984375 84.71679688 C31.52058594 86.31104492 31.52058594 86.31104492 30.625 87.9375 C30.0475 88.99646484 29.47 90.05542969 28.875 91.14648438 C25.96906051 96.46408826 23.00706551 101.73763536 20 107 C13.07 107 6.14 107 -1 107 C-2 104 -2 104 -1.23413086 102.02075195 C-0.81526611 101.26753662 -0.39640137 100.51432129 0.03515625 99.73828125 C0.50832275 98.8779126 0.98148926 98.01754395 1.46899414 97.13110352 C1.99485107 96.20096436 2.52070801 95.2708252 3.0625 94.3125 C3.86385376 92.86798462 3.86385376 92.86798462 4.68139648 91.39428711 C9.44163999 82.8640021 14.36797364 74.42766053 19.36547852 66.03442383 C20.46454533 64.17719495 21.54846774 62.31088225 22.61376953 60.43408203 C23.44862683 58.96815614 24.31578093 57.51906428 25.24169922 56.10888672 C26.43772473 54.24076195 26.43772473 54.24076195 27 51 C25.86409891 47.35143289 23.97493384 44.25447665 22 41 C21.4548877 40.05318359 20.90977539 39.10636719 20.34814453 38.13085938 C19.18712232 36.11749549 18.01506123 34.11046381 16.83300781 32.109375 C14.37683589 27.94291181 11.98302691 23.74246565 9.59765625 19.53515625 C8.47026874 17.54880682 7.3351378 15.56682751 6.19140625 13.58984375 C3.64335652 9.14498281 1.34602118 4.98526362 0 0 Z " fill="#EDE7D9" transform="translate(697,631)"/>
<path d="M0 0 C7.26 0 14.52 0 22 0 C22 29.37 22 58.74 22 89 C35.2 89 48.4 89 62 89 C62 94.94 62 100.88 62 107 C54.0638579 107.02255473 46.12774054 107.04091723 38.19157505 107.05181217 C34.50685502 107.05704008 30.82215797 107.06413605 27.13745117 107.07543945 C23.58429169 107.08627162 20.03115437 107.09227753 16.47797966 107.09487724 C15.11954334 107.0967309 13.76110829 107.10035038 12.40268135 107.10573006 C10.50617777 107.11294475 8.60965207 107.11340809 6.71313477 107.11352539 C5.09097801 107.11685631 5.09097801 107.11685631 3.43605042 107.12025452 C1 107 1 107 0 106 C-0.0953919 104.62123975 -0.12188622 103.23763084 -0.12025452 101.85557556 C-0.12162918 100.96230057 -0.12300385 100.06902557 -0.12442017 99.14868164 C-0.12082489 98.16109863 -0.11722961 97.17351562 -0.11352539 96.15600586 C-0.11367142 95.12198135 -0.11381744 94.08795685 -0.1139679 93.02259827 C-0.11326827 89.58665914 -0.10547358 86.15077347 -0.09765625 82.71484375 C-0.09579225 80.33972707 -0.09436826 77.96461 -0.09336853 75.5894928 C-0.08954197 69.32423856 -0.0797105 63.05900733 -0.06866455 56.79376221 C-0.0584534 50.4061311 -0.05387155 44.01849629 -0.04882812 37.63085938 C-0.03808836 25.08722782 -0.02049044 12.54361942 0 0 Z " fill="#EDE7D8" transform="translate(878,631)"/>
<path d="M0 0 C6.93 0 13.86 0 21 0 C21 35.31 21 70.62 21 107 C14.07 107 7.14 107 0 107 C0 71.69 0 36.38 0 0 Z " fill="#EFE9DB" transform="translate(658,631)"/>
<path d="M0 0 C2.41665172 3.41126008 2.39342582 6.98422147 2.625 11.0625 C2.69976563 12.29097656 2.77453125 13.51945312 2.8515625 14.78515625 C2.94713966 16.85515629 3 18.92779461 3 21 C9.5507606 20.85111908 13.80953679 17.91960768 19.23046875 14.3984375 C22.3242007 12.83629922 22.87372583 12.99481282 26 14 C26.19502282 16.91634122 26.38129328 19.83279545 26.5625 22.75 C26.64661133 23.9875 26.64661133 23.9875 26.73242188 25.25 C26.78076172 26.04921875 26.82910156 26.8484375 26.87890625 27.671875 C26.9260376 28.4050293 26.97316895 29.13818359 27.02172852 29.89355469 C26.99902954 32.09408056 26.60266592 33.89080784 26 36 C25.814375 37.0209375 25.814375 37.0209375 25.625 38.0625 C24.6622415 41.04705134 22.82478775 42.53066471 20.1328125 44.0625 C19.47023438 44.371875 18.80765625 44.68125 18.125 45 C15.68970488 46.16392782 13.43815756 47.34199105 11.125 48.75 C9 50 9 50 7 50 C6.67 50.66 6.34 51.32 6 52 C4.515 51.505 4.515 51.505 3 51 C2.17701492 46.73719447 1.91807417 42.77444878 2 38.4375 C2.07526004 34.4440141 1.92754954 30.8913602 1 27 C-0.423125 27.2475 -0.423125 27.2475 -1.875 27.5 C-5 28 -5 28 -7 28 C-7.7734375 29.11375 -7.7734375 29.11375 -8.5625 30.25 C-11.82681058 33.93281193 -15.47101843 35.26776132 -20 37 C-22.18007539 32.63984922 -21.31886664 26.85169656 -21.375 22.0625 C-21.41238281 20.85658203 -21.44976563 19.65066406 -21.48828125 18.40820312 C-21.49988281 17.25384766 -21.51148438 16.09949219 -21.5234375 14.91015625 C-21.54325684 13.84933838 -21.56307617 12.78852051 -21.58349609 11.69555664 C-21 9 -21 9 -18.61206055 7.22875977 C-17.75008057 6.82326904 -16.88810059 6.41777832 -16 6 C-13.71584594 4.45155154 -11.44777898 2.88216144 -9.18359375 1.3046875 C-5.6622233 -0.79931559 -3.93781189 -1.31260396 0 0 Z " fill="#97542B" transform="translate(610,412)"/>
<path d="M0 0 C1.06476563 -0.020625 2.12953125 -0.04125 3.2265625 -0.0625 C9.71478133 -0.09438314 15.61708048 0.29234277 21.5 3.25 C25.6041041 7.3541041 26.65454219 10.80435042 26.75 16.5 C26.67554667 21.62374309 26.25355963 24.89759929 23.5 29.25 C16.9623117 34.46514304 10.19417236 33.7464477 2.125 33.5625 C0.82949219 33.55283203 -0.46601563 33.54316406 -1.80078125 33.53320312 C-11.33180928 33.41819072 -11.33180928 33.41819072 -12.5 32.25 C-12.6002093 29.97052208 -12.63081303 27.68792865 -12.6328125 25.40625 C-12.63376923 24.72195923 -12.63472595 24.03766846 -12.63571167 23.3326416 C-12.6363933 21.88338123 -12.63454023 20.43411782 -12.63037109 18.98486328 C-12.62502252 16.75937072 -12.6303166 14.53407999 -12.63671875 12.30859375 C-12.63605797 10.90364539 -12.6347768 9.49869715 -12.6328125 8.09375 C-12.63168457 6.80662109 -12.63055664 5.51949219 -12.62939453 4.19335938 C-12.3468748 -2.23316495 -5.10159706 0.02400752 0 0 Z " fill="#0E0E0C" transform="translate(405.5,648.75)"/>
<path d="M0 0 C3.68743234 -0.05850924 7.3747437 -0.09376673 11.0625 -0.125 C12.10083984 -0.14175781 13.13917969 -0.15851562 14.20898438 -0.17578125 C27.14001483 -0.25788303 27.14001483 -0.25788303 32.375 3.875 C36.09507956 8.73971943 35.43082134 15.15077187 35 21 C34.37795164 24.39638403 33.32849005 26.9872097 30.47436523 29.16308594 C24.38319139 32.47868735 18.88734368 32.50553455 12.0625 32.3125 C10.4837207 32.29799805 10.4837207 32.29799805 8.87304688 32.28320312 C1.16880836 32.16880836 1.16880836 32.16880836 0 31 C-0.08790975 28.70848583 -0.10694038 26.41427476 -0.09765625 24.12109375 C-0.0962413 23.4344313 -0.09482635 22.74776886 -0.09336853 22.04029846 C-0.08775479 19.83932199 -0.07520007 17.63844591 -0.0625 15.4375 C-0.05748676 13.94856917 -0.05292355 12.45963676 -0.04882812 10.97070312 C-0.03778093 7.31376925 -0.02050713 3.65689442 0 0 Z " fill="#0D0D0B" transform="translate(589,650)"/>
<path d="M0 0 C4.04142215 -0.11662261 8.08240865 -0.1873935 12.125 -0.25 C13.26710937 -0.28351562 14.40921875 -0.31703125 15.5859375 -0.3515625 C26.21893882 -0.47520205 26.21893882 -0.47520205 31 4 C33.54400761 7.81601142 33.33116914 10.95414856 33.3125 15.375 C33.32861328 16.13039063 33.34472656 16.88578125 33.36132812 17.6640625 C33.3652938 22.20079626 33.20809856 25.51981418 30 29 C23.6897835 32.23600846 18.05733271 32.40511757 11.0625 32.25 C10.10537109 32.24484375 9.14824219 32.2396875 8.16210938 32.234375 C1.15480303 32.15480303 1.15480303 32.15480303 0 31 C-0.08790975 28.70848583 -0.10694038 26.41427476 -0.09765625 24.12109375 C-0.0962413 23.4344313 -0.09482635 22.74776886 -0.09336853 22.04029846 C-0.08775479 19.83932199 -0.07520007 17.63844591 -0.0625 15.4375 C-0.05748676 13.94856917 -0.05292355 12.45963676 -0.04882812 10.97070312 C-0.03778093 7.31376925 -0.02050713 3.65689442 0 0 Z " fill="#0D0C0B" transform="translate(212,650)"/>
<path d="M0 0 C2.1277636 1.03628832 4.25205733 2.07891231 6.375 3.125 C8.15003906 3.99511719 8.15003906 3.99511719 9.9609375 4.8828125 C10.58919434 5.22070801 11.21745117 5.55860352 11.86474609 5.90673828 C14.05629394 7.07274607 14.05629394 7.07274607 16.68603516 8.05810547 C19.6995337 9.43196133 21.72589388 10.57839029 24 13 C25.23719503 17.97536195 24.94796219 22.80266559 24.625 27.875 C24.57478889 29.24462949 24.52917008 30.61443551 24.48828125 31.984375 C24.37056838 35.3274205 24.20639699 38.6614493 24 42 C20.16154906 41.31006673 17.55558634 40.34569853 14.25 38.25 C10.62207814 35.92836296 10.62207814 35.92836296 6.70556641 34.18041992 C3.94008609 33.06134597 2.12187285 32.11366973 0 30 C-1.31302729 25.27726276 -1.21306506 20.68787975 -1.125 15.8125 C-1.14046875 14.51634766 -1.1559375 13.22019531 -1.171875 11.88476562 C-1.23092203 2.46184406 -1.23092203 2.46184406 0 0 Z " fill="#4E2D20" transform="translate(392,454)"/>
<path d="M0 0 C0.80751709 0.40810913 0.80751709 0.40810913 1.63134766 0.82446289 C2.34339355 1.1827417 3.05543945 1.54102051 3.7890625 1.91015625 C4.49240723 2.264729 5.19575195 2.61930176 5.92041016 2.98461914 C7.71185355 3.85930957 9.54086055 4.65629245 11.375 5.4375 C16.00429097 7.43288404 20.49117378 9.74558689 25 12 C25 21.24 25 30.48 25 40 C20.9987997 39.19975994 19.00987293 38.67197674 15.64453125 36.78515625 C14.85755859 36.34623047 14.07058594 35.90730469 13.25976562 35.45507812 C12.04836914 34.76575195 12.04836914 34.76575195 10.8125 34.0625 C9.99330078 33.60681641 9.17410156 33.15113281 8.33007812 32.68164062 C2.28148496 29.28148496 2.28148496 29.28148496 0 27 C-0.22705078 24.29443359 -0.22705078 24.29443359 -0.1953125 20.8984375 C-0.18886719 19.68671875 -0.18242187 18.475 -0.17578125 17.2265625 C-0.15902344 15.95554687 -0.14226562 14.68453125 -0.125 13.375 C-0.11146484 11.456875 -0.11146484 11.456875 -0.09765625 9.5 C-0.07402303 6.33314833 -0.04107629 3.16666576 0 0 Z " fill="#3A5330" transform="translate(415,356)"/>
<path d="M0 0 C0.66 0 1.32 0 2 0 C3.15149328 2.30298656 3.12336988 3.58996098 3.12025452 6.15078735 C3.12162918 7.02019455 3.12300385 7.88960175 3.12442017 8.78535461 C3.12082489 9.74129013 3.11722961 10.69722565 3.11352539 11.68212891 C3.11367142 12.68703873 3.11381744 13.69194855 3.1139679 14.72731018 C3.11326929 18.06041598 3.10547933 21.39346642 3.09765625 24.7265625 C3.09579188 27.03298919 3.09436807 29.33941628 3.09336853 31.64584351 C3.08954482 37.72531217 3.07971576 43.80475706 3.06866455 49.88421631 C3.05665187 57.17377226 3.05204749 64.46333616 3.04621124 71.75289917 C3.03650395 82.83528266 3.01734634 93.91761396 3 105 C21.48 105 39.96 105 59 105 C59 100.38 59 95.76 59 91 C57.91992676 91.00523682 56.83985352 91.01047363 55.72705078 91.01586914 C51.72771022 91.03394108 47.72837328 91.04544007 43.72900391 91.05493164 C41.99657586 91.05996682 40.26415208 91.06679532 38.53173828 91.07543945 C36.04458567 91.08754065 33.55748913 91.09323638 31.0703125 91.09765625 C30.29317902 91.10281754 29.51604553 91.10797882 28.71536255 91.11329651 C23.22774341 91.11387171 23.22774341 91.11387171 21 90 C21 60.3 21 30.6 21 0 C21.33 0 21.66 0 22 0 C22 29.37 22 58.74 22 89 C35.2 89 48.4 89 62 89 C62 94.94 62 100.88 62 107 C54.0638579 107.02255473 46.12774054 107.04091723 38.19157505 107.05181217 C34.50685502 107.05704008 30.82215797 107.06413605 27.13745117 107.07543945 C23.58429169 107.08627162 20.03115437 107.09227753 16.47797966 107.09487724 C15.11954334 107.0967309 13.76110829 107.10035038 12.40268135 107.10573006 C10.50617777 107.11294475 8.60965207 107.11340809 6.71313477 107.11352539 C5.09097801 107.11685631 5.09097801 107.11685631 3.43605042 107.12025452 C1 107 1 107 0 106 C-0.0953919 104.62123975 -0.12188622 103.23763084 -0.12025452 101.85557556 C-0.12162918 100.96230057 -0.12300385 100.06902557 -0.12442017 99.14868164 C-0.12082489 98.16109863 -0.11722961 97.17351562 -0.11352539 96.15600586 C-0.11367142 95.12198135 -0.11381744 94.08795685 -0.1139679 93.02259827 C-0.11326827 89.58665914 -0.10547358 86.15077347 -0.09765625 82.71484375 C-0.09579225 80.33972707 -0.09436826 77.96461 -0.09336853 75.5894928 C-0.08954197 69.32423856 -0.0797105 63.05900733 -0.06866455 56.79376221 C-0.0584534 50.4061311 -0.05387155 44.01849629 -0.04882812 37.63085938 C-0.03808836 25.08722974 -0.02120127 12.54361609 0 0 Z " fill="#E2DED4" transform="translate(878,631)"/>
<path d="M0 0 C0.33 0 0.66 0 1 0 C1.20890505 7.97986759 1.36862274 15.95858617 1.46630955 23.94051552 C1.51320609 27.64736384 1.5767559 31.35233674 1.67895508 35.05810547 C1.77704411 38.63740687 1.83061434 42.21491013 1.85389519 45.79545212 C1.87047461 47.15841363 1.90285642 48.52128086 1.95157051 49.88347244 C2.3178173 60.55316079 2.3178173 60.55316079 -0.95048523 64.14144897 C-3.24558598 65.69236167 -5.47262811 66.87707374 -8 68 C-9.06089844 68.62648438 -10.12179687 69.25296875 -11.21484375 69.8984375 C-12.11332031 70.38570313 -13.01179687 70.87296875 -13.9375 71.375 C-15.31228516 72.12910156 -15.31228516 72.12910156 -16.71484375 72.8984375 C-19 74 -19 74 -21 74 C-21.26221814 69.79285562 -21.42147604 65.58781109 -21.5625 61.375 C-21.63791016 60.18519531 -21.71332031 58.99539063 -21.79101562 57.76953125 C-22.00806266 49.13588237 -22.00806266 49.13588237 -19.13232422 45.89550781 C-15.9957536 43.75590231 -12.86697713 42.33013374 -9.32641602 40.98193359 C-6.86328896 40.11428157 -6.86328896 40.11428157 -5 38 C-3.35 38 -1.7 38 0 38 C0 25.46 0 12.92 0 0 Z " fill="#56743D" transform="translate(656,293)"/>
<path d="M0 0 C3.16135288 1.58067644 3.52764044 4.77544265 4.6015625 7.95703125 C4.8428891 8.65640305 5.0842157 9.35577484 5.33285522 10.07633972 C5.84236501 11.5588569 6.34817427 13.0426502 6.85058594 14.52758789 C7.61943829 16.79609014 8.40252498 19.05929902 9.1875 21.32226562 C9.68055166 22.76272533 10.17276662 24.20347176 10.6640625 25.64453125 C10.89839996 26.32070999 11.13273743 26.99688873 11.37417603 27.69355774 C12.49195399 31.02501209 13 33.43480502 13 37 C4.75 37 -3.5 37 -12 37 C-10.20120096 29.80480384 -8.49152002 23.0657176 -5.9375 16.1875 C-4.46404643 12.16797805 -3.01622959 8.1802855 -1.87890625 4.05078125 C-1 1 -1 1 0 0 Z " fill="#0D0D0B" transform="translate(310,661)"/>
<path d="M0 0 C0.74362793 0.01047363 1.48725586 0.02094727 2.25341797 0.03173828 C3.46191406 0.04140625 3.46191406 0.04140625 4.69482422 0.05126953 C5.95746094 0.07640625 5.95746094 0.07640625 7.24560547 0.10205078 C8.51984375 0.11558594 8.51984375 0.11558594 9.81982422 0.12939453 C11.9202043 0.15299431 14.02043991 0.18886595 16.12060547 0.22705078 C15.79060547 0.88705078 15.46060547 1.54705078 15.12060547 2.22705078 C9.51060547 2.22705078 3.90060547 2.22705078 -1.87939453 2.22705078 C-1.54939453 37.20705078 -1.21939453 72.18705078 -0.87939453 108.22705078 C29.31560547 108.72205078 29.31560547 108.72205078 60.12060547 109.22705078 C60.12060547 102.95705078 60.12060547 96.68705078 60.12060547 90.22705078 C60.45060547 90.22705078 60.78060547 90.22705078 61.12060547 90.22705078 C61.14948361 93.70620019 61.16736234 97.18531909 61.18310547 100.66455078 C61.19148437 101.65777344 61.19986328 102.65099609 61.20849609 103.67431641 C61.21171875 104.61855469 61.21494141 105.56279297 61.21826172 106.53564453 C61.22349854 107.41019287 61.22873535 108.28474121 61.23413086 109.18579102 C61.12060547 111.22705078 61.12060547 111.22705078 60.12060547 112.22705078 C58.27060571 112.34187441 56.41622264 112.38670214 54.56274414 112.40405273 C53.37448532 112.41688797 52.1862265 112.42972321 50.96195984 112.44294739 C49.66724258 112.45033432 48.37252533 112.45772125 47.03857422 112.46533203 C46.38253016 112.46940756 45.72648609 112.47348309 45.0505619 112.47768211 C41.57708676 112.4985612 38.10365133 112.51285387 34.63012695 112.5222168 C31.04193922 112.53327486 27.45437277 112.56766123 23.86640453 112.6073885 C21.1082901 112.6335397 18.35032384 112.6419073 15.59209633 112.64549828 C13.62667137 112.65273775 11.66134762 112.679186 9.6960907 112.70588684 C8.4983754 112.70296127 7.3006601 112.70003571 6.06665039 112.69702148 C4.48565804 112.70582085 4.48565804 112.70582085 2.87272644 112.71479797 C0.12060547 112.22705078 0.12060547 112.22705078 -2.22065735 110.83222961 C-4.82003849 106.74969454 -4.41998205 102.81710395 -4.36523438 98.07421875 C-4.36903107 97.04296875 -4.37282776 96.01171875 -4.3767395 94.94921875 C-4.38415203 91.5389164 -4.36275471 88.12946496 -4.34033203 84.71923828 C-4.33794829 82.3532013 -4.33704214 79.9871624 -4.33755493 77.62112427 C-4.33442588 72.66298574 -4.31784989 67.70513617 -4.29101562 62.74707031 C-4.25699875 56.38000666 -4.24938801 50.01326013 -4.25090599 43.64611626 C-4.25036319 38.76149447 -4.23941103 33.87694252 -4.22490311 28.9923439 C-4.21852321 26.6439072 -4.21459344 24.29546257 -4.21311569 21.94701767 C-4.20879746 18.67157137 -4.19132933 15.39646704 -4.16992188 12.12109375 C-4.17082825 11.1433902 -4.17173462 10.16568665 -4.17266846 9.15835571 C-4.16413849 8.26948669 -4.15560852 7.38061768 -4.14682007 6.46481323 C-4.14346838 5.69017164 -4.14011669 4.91553005 -4.13666344 4.11741447 C-3.76544212 1.38974985 -2.74189729 0.33125026 0 0 Z " fill="#191816" transform="translate(879.87939453125,628.77294921875)"/>
<path d="M0 0 C2.13424007 2.01737966 3.73599189 4.02959553 5.3125 6.5 C7.68775066 9.92528525 10.08239328 11.45117874 14 13 C12.76661973 16.7001408 10.97981001 17.36086482 7.85546875 19.4609375 C4.72196252 22.06009846 2.91037382 25.4521629 1 29 C-0.73659918 27.42127347 -1.90721291 26.20897993 -2.8671875 24.046875 C-4.42500025 21.23206851 -6.46517572 20.02321619 -9.125 18.25 C-10.03507813 17.63640625 -10.94515625 17.0228125 -11.8828125 16.390625 C-12.58148437 15.93171875 -13.28015625 15.4728125 -14 15 C-11.31158141 12.74754119 -9.35358125 11.11786042 -6 10 C-4.99083967 8.23408113 -4.99083967 8.23408113 -4 6 C-2.68457624 3.98817543 -1.3540932 1.98600337 0 0 Z " fill="#FDDC7C" transform="translate(542,281)"/>
<path d="M0 0 C0.53625 0.680625 1.0725 1.36125 1.625 2.0625 C2.40875 3.031875 3.1925 4.00125 4 5 C4.70576172 5.90105469 4.70576172 5.90105469 5.42578125 6.8203125 C8.30683303 10.3788209 10.40450726 12.78354604 15 14 C13.9171875 14.8353125 13.9171875 14.8353125 12.8125 15.6875 C7.56346113 20.00337641 4.15374197 24.04293183 1 30 C-0.9430866 27.7189853 -1.94505477 26.38461661 -2.375 23.375 C-2.58125 22.59125 -2.7875 21.8075 -3 21 C-5.18428569 19.75732962 -5.18428569 19.75732962 -8 19 C-9.2763596 18.47148671 -10.54716384 17.92938663 -11.8125 17.375 C-12.864375 16.92125 -13.91625 16.4675 -15 16 C-15 15.34 -15 14.68 -15 14 C-14.41992188 13.82726562 -13.83984375 13.65453125 -13.2421875 13.4765625 C-5.97599654 10.86265222 -3.31303263 6.80795724 0 0 Z " fill="#F4A655" transform="translate(382,222)"/>
<path d="M0 0 C0 0.99 0 1.98 0 3 C-0.66 3.66 -1.32 4.32 -2 5 C-2.66 5 -3.32 5 -4 5 C-4.33 5.66 -4.66 6.32 -5 7 C-11.23076923 10 -11.23076923 10 -15 10 C-15.33 10.66 -15.66 11.32 -16 12 C-18.91765 13.9451 -20.62537285 14.45276317 -24 15 C-24 15.66 -24 16.32 -24 17 C-24.61875 17.28875 -25.2375 17.5775 -25.875 17.875 C-28.13325765 18.93720042 -28.13325765 18.93720042 -30 21 C-31.76953125 21.74609375 -31.76953125 21.74609375 -33.8125 22.4375 C-39.05571006 24.33721379 -42.87118536 26.22444081 -46 31 C-46.71542969 30.76925781 -47.43085938 30.53851563 -48.16796875 30.30078125 C-51.94183217 29.89997093 -53.24122835 31.03183177 -56.3125 33.1875 C-60.22209681 35.83423916 -64.05034835 38.13943767 -68.3046875 40.171875 C-70.16695919 41.05148479 -70.16695919 41.05148479 -72.5 42.5 C-81.66666667 48 -81.66666667 48 -85 48 C-85.268125 48.969375 -85.53625 49.93875 -85.8125 50.9375 C-86.204375 51.948125 -86.59625 52.95875 -87 54 C-88.485 54.495 -88.485 54.495 -90 55 C-90.66 53.35 -91.32 51.7 -92 50 C-91.32235596 49.63874023 -90.64471191 49.27748047 -89.9465332 48.90527344 C-78.1315457 42.59783723 -66.34469298 36.26930826 -54.75 29.5625 C-48.21806118 25.78623238 -41.66230209 22.28013227 -34.875 18.984375 C-28.49897808 15.79636404 -22.35056988 12.16180898 -16.16845703 8.61743164 C-10.84934593 5.57487821 -5.51224269 2.6779335 0 0 Z " fill="#468B37" transform="translate(461,238)"/>
<path d="M0 0 C0.33 0 0.66 0 1 0 C1 29.37 1 58.74 1 89 C14.2 89 27.4 89 41 89 C41 94.61 41 100.22 41 106 C40.34 106 39.68 106 39 106 C39 101.05 39 96.1 39 91 C37.33445068 91.00785522 37.33445068 91.00785522 35.63525391 91.01586914 C31.52409671 91.03393985 27.41294304 91.04543962 23.30175781 91.05493164 C21.52082733 91.05996711 19.739901 91.06679581 17.95898438 91.07543945 C15.40233335 91.08753942 12.84573688 91.09323609 10.2890625 91.09765625 C9.49005524 91.10281754 8.69104797 91.10797882 7.86782837 91.11329651 C2.22774341 91.11387171 2.22774341 91.11387171 0 90 C0 60.3 0 30.6 0 0 Z " fill="#D0CDC3" transform="translate(899,631)"/>
<path d="M0 0 C2.05678821 2.05678821 2.78113081 3.58395957 4 6.1875 C6.6574377 11.1352819 10.11073064 13.62044836 14.79296875 16.58984375 C17 18 17 18 19 20 C18.27554688 20.38929688 17.55109375 20.77859375 16.8046875 21.1796875 C10.26362338 24.96478327 6.55387704 28.23581861 3.21875 35.05859375 C2.8165625 35.69925781 2.414375 36.33992188 2 37 C1.01 37 0.02 37 -1 37 C-4 31 -4 31 -4.9375 28.75 C-6.30656391 26.4950712 -7.63211676 26.12716289 -10 25 C-11.42831735 24.18679742 -12.84524447 23.35325892 -14.25 22.5 C-14.95640625 22.0771875 -15.6628125 21.654375 -16.390625 21.21875 C-16.92171875 20.8165625 -17.4528125 20.414375 -18 20 C-18 19.34 -18 18.68 -18 18 C-17.40832031 17.76925781 -16.81664062 17.53851563 -16.20703125 17.30078125 C-9.0831591 14.36058606 -4.92378187 11.35676331 -1.6875 4.1875 C-1.11336427 2.79641226 -0.54677577 1.40206747 0 0 Z M0 5 C-1.05858227 6.26091517 -2.07243808 7.55959859 -3.0625 8.875 C-3.61035156 9.59429687 -4.15820312 10.31359375 -4.72265625 11.0546875 C-6.1829588 12.89076827 -6.1829588 12.89076827 -6 15 C-6.5775 15.268125 -7.155 15.53625 -7.75 15.8125 C-10.03412048 17.01800803 -11.95431531 18.43135523 -14 20 C-13.32453125 20.42410156 -12.6490625 20.84820312 -11.953125 21.28515625 C-6.32185495 24.98779768 -2.77521854 27.81883143 0 34 C2.36408394 33.06534631 2.36408394 33.06534631 3.625 29.8125 C5.77511229 25.82412376 8.66652104 23.74218945 12.390625 21.26171875 C12.92171875 20.84535156 13.4528125 20.42898438 14 20 C14 19.34 14 18.68 14 18 C13.154375 17.71125 12.30875 17.4225 11.4375 17.125 C7.08365114 15.02063972 4.97395526 11.02603693 2.41796875 7.08203125 C1.95003906 6.39496094 1.48210938 5.70789063 1 5 C0.67 5 0.34 5 0 5 Z " fill="#E5973A" transform="translate(542,276)"/>
<path d="M0 0 C0.66 0.33 1.32 0.66 2 1 C-2.46410676 4.69883132 -6.99235564 7.51913308 -12.16796875 10.09375 C-12.88621826 10.45146484 -13.60446777 10.80917969 -14.34448242 11.17773438 C-14.89080322 11.44908203 -15.43712402 11.72042969 -16 12 C-15.98428955 12.95253662 -15.98428955 12.95253662 -15.96826172 13.92431641 C-15.92647533 16.8245034 -15.90060229 19.72462682 -15.875 22.625 C-15.85824219 23.62402344 -15.84148438 24.62304688 -15.82421875 25.65234375 C-15.79013424 30.79910465 -15.78783438 35.23533559 -18 40 C-21.2 43 -21.2 43 -24 43 C-24.33 43.66 -24.66 44.32 -25 45 C-26.45144288 45.78289949 -27.93763631 46.50191488 -29.4375 47.1875 C-35.05744866 49.8961044 -39.99131156 53.30209599 -45 57 C-46.32 56.34 -47.64 55.68 -49 55 C-39.75107779 48.83405186 -29.58524663 42.52841554 -19 39 C-19 29.43 -19 19.86 -19 10 C-15.90625 8.329375 -12.8125 6.65875 -9.625 4.9375 C-8.65127441 4.40632568 -7.67754883 3.87515137 -6.67431641 3.32788086 C-5.90780762 2.91932861 -5.14129883 2.51077637 -4.3515625 2.08984375 C-3.56604004 1.66566162 -2.78051758 1.24147949 -1.97119141 0.80444336 C-1.32069824 0.53897705 -0.67020508 0.27351074 0 0 Z " fill="#60371F" transform="translate(559,381)"/>
<path d="M0 0 C5.96652354 1.57013777 10.82909025 4.75029782 16 8 C11.69227679 12.90900957 6.69139539 15.69694326 1 18.8125 C-0.47774902 19.63379395 -0.47774902 19.63379395 -1.98535156 20.47167969 C-4.71950438 21.98896103 -7.45788673 23.49830522 -10.19750977 25.00567627 C-12.7538607 26.41585889 -15.30468079 27.8359103 -17.85559082 29.25590515 C-21.15195414 31.09046739 -24.45098453 32.92021284 -27.75 34.75 C-28.39050293 35.1058316 -29.03100586 35.46166321 -29.69091797 35.82827759 C-31.51642851 36.84133854 -33.34384045 37.8508773 -35.171875 38.859375 C-36.2247168 39.44170898 -37.27755859 40.02404297 -38.36230469 40.62402344 C-41 42 -41 42 -44 43 C-44 42.01 -44 41.02 -44 40 C-40.49408652 37.31900734 -37.34159496 36.50483662 -33 36 C-33 35.34 -33 34.68 -33 34 C-31.25 31.8125 -31.25 31.8125 -29 30 C-26.75 30.25 -26.75 30.25 -25 31 C-25 30.34 -25 29.68 -25 29 C-23.7934375 28.6596875 -23.7934375 28.6596875 -22.5625 28.3125 C-14.65062243 25.58024423 -14.65062243 25.58024423 -9 20 C-7.67252257 19.644061 -6.33777224 19.31504654 -5 19 C-3.45538445 18.25580048 -1.93448774 17.46088148 -0.4375 16.625 C0.32691406 16.20476562 1.09132813 15.78453125 1.87890625 15.3515625 C3.88948566 14.07041982 5.39628088 12.75230651 7 11 C7.99 11.33 8.98 11.66 10 12 C10 11.34 10 10.68 10 10 C10.66 9.34 11.32 8.68 12 8 C10.700625 7.25943359 10.700625 7.25943359 9.375 6.50390625 C8.26125 5.86324219 7.1475 5.22257812 6 4.5625 C4.88625 3.92441406 3.7725 3.28632813 2.625 2.62890625 C1.75875 2.09136719 0.8925 1.55382812 0 1 C0 0.67 0 0.34 0 0 Z " fill="#85A02F" transform="translate(641,282)"/>
<path d="M0 0 C7.59 0 15.18 0 23 0 C23.33 0.66 23.66 1.32 24 2 C22.02091515 2.02752977 20.04171269 2.04663002 18.0625 2.0625 C16.96035156 2.07410156 15.85820313 2.08570313 14.72265625 2.09765625 C10.46748047 1.98603044 6.23060493 1.47006721 2 1 C2 10.57 2 20.14 2 30 C7.81625 29.7834375 7.81625 29.7834375 13.75 29.5625 C14.96655273 29.51939697 16.18310547 29.47629395 17.43652344 29.43188477 C18.40106445 29.39377686 19.36560547 29.35566895 20.359375 29.31640625 C21.83615723 29.26141968 21.83615723 29.26141968 23.34277344 29.20532227 C25.68923551 29.02401258 27.74718412 28.65668181 30 28 C27.40778263 30.83909522 25.50451559 31.92008486 21.56396484 32.12939453 C20.62246582 32.13052246 19.6809668 32.13165039 18.7109375 32.1328125 C17.17566406 32.13474609 17.17566406 32.13474609 15.609375 32.13671875 C14.54203125 32.13285156 13.4746875 32.12898437 12.375 32.125 C11.29992187 32.12886719 10.22484375 32.13273438 9.1171875 32.13671875 C8.09625 32.13542969 7.0753125 32.13414062 6.0234375 32.1328125 C5.08419434 32.13168457 4.14495117 32.13055664 3.17724609 32.12939453 C1 32 1 32 0 31 C-0.08790975 28.70848583 -0.10694038 26.41427476 -0.09765625 24.12109375 C-0.0962413 23.4344313 -0.09482635 22.74776886 -0.09336853 22.04029846 C-0.08775479 19.83932199 -0.07520007 17.63844591 -0.0625 15.4375 C-0.05748676 13.94856917 -0.05292355 12.45963676 -0.04882812 10.97070312 C-0.03863021 7.31373195 -0.01905779 3.65697883 0 0 Z " fill="#050604" transform="translate(589,650)"/>
<path d="M0 0 C0.66 0.99 1.32 1.98 2 3 C4.56675597 5.69838448 6.89548863 7.93032576 10 10 C9.0925 10.37125 8.185 10.7425 7.25 11.125 C3.54887824 13.26026255 2.11346343 15.34208252 0 19 C-2 16 -2 16 -2 14 C-2.8971875 13.566875 -2.8971875 13.566875 -3.8125 13.125 C-6 12 -6 12 -9 10 C-9 9.34 -9 8.68 -9 8 C-7.88625 7.690625 -7.88625 7.690625 -6.75 7.375 C-3.20768823 5.60384411 -1.97553159 3.36572049 0 0 Z " fill="#F0A758" transform="translate(675,246)"/>
<path d="M0 0 C0 0.99 0 1.98 0 3 C-0.66 3.66 -1.32 4.32 -2 5 C-2.66 5 -3.32 5 -4 5 C-4.33 5.66 -4.66 6.32 -5 7 C-11.23076923 10 -11.23076923 10 -15 10 C-15.33 10.66 -15.66 11.32 -16 12 C-18.91765 13.9451 -20.62537285 14.45276317 -24 15 C-24 15.66 -24 16.32 -24 17 C-24.61875 17.28875 -25.2375 17.5775 -25.875 17.875 C-28.13325765 18.93720042 -28.13325765 18.93720042 -30 21 C-31.875 21.81640625 -31.875 21.81640625 -34 22.5625 C-36.07697972 23.29936964 -38.02750187 24.01375093 -40 25 C-40.33 24.01 -40.66 23.02 -41 22 C-40.21987549 21.58226318 -39.43975098 21.16452637 -38.63598633 20.73413086 C-35.67433433 19.14814904 -32.71275491 17.56203184 -29.7512207 15.97583008 C-28.48204294 15.29609037 -27.21283825 14.61640091 -25.94360352 13.93676758 C-17.28949449 9.3027203 -8.6412405 4.65800552 0 0 Z " fill="#3F8335" transform="translate(461,238)"/>
<path d="M0 0 C0.33 0.99 0.66 1.98 1 3 C1.66 3.33 2.32 3.66 3 4 C2.67 4.33 2.34 4.66 2 5 C1.95269645 6.8744032 1.96278649 8.75036933 2 10.625 C2.04390127 15.22365806 1.82149623 19.48177075 1 24 C7.22093238 20.59105473 13.33121766 17.03185906 19.3984375 13.35546875 C22 12 22 12 25 12 C25.33 11.01 25.66 10.02 26 9 C28.21484375 7.61328125 28.21484375 7.61328125 30.9375 6.3125 C31.83339844 5.87550781 32.72929688 5.43851562 33.65234375 4.98828125 C36 4 36 4 38 4 C38 4.66 38 5.32 38 6 C32.37389491 9.87044109 26.19241091 12.95029375 20.0625 15.9375 C14.29552181 18.75233459 8.93372793 22.03130402 3.51953125 25.4609375 C1 27 1 27 0 27 C0 18.09 0 9.18 0 0 Z " fill="#54793F" transform="translate(565,380)"/>
<path d="M0 0 C1.12591553 0.00523682 2.25183105 0.01047363 3.41186523 0.01586914 C4.62680664 0.0190918 5.84174805 0.02231445 7.09350586 0.02563477 C8.37290039 0.03401367 9.65229492 0.04239258 10.97045898 0.05102539 C12.2537207 0.05553711 13.53698242 0.06004883 14.85913086 0.06469727 C18.04211921 0.07652994 21.22501661 0.09301471 24.40795898 0.11352539 C24.40795898 0.44352539 24.40795898 0.77352539 24.40795898 1.11352539 C12.03295898 1.60852539 12.03295898 1.60852539 -0.59204102 2.11352539 C-0.92204102 13.00352539 -1.25204102 23.89352539 -1.59204102 35.11352539 C-2.25204102 35.11352539 -2.91204102 35.11352539 -3.59204102 35.11352539 C-3.61669292 30.28971737 -3.63487794 25.46594572 -3.64697266 20.64208984 C-3.65201275 18.99983075 -3.6588448 17.35757616 -3.66748047 15.71533203 C-3.67956027 13.3597706 -3.6852724 11.0042683 -3.68969727 8.64868164 C-3.69485855 7.91013443 -3.70001984 7.17158722 -3.70533752 6.41065979 C-3.70553351 4.64454451 -3.6539882 2.87855393 -3.59204102 1.11352539 C-2.59204102 0.11352539 -2.59204102 0.11352539 0 0 Z " fill="#010201" transform="translate(592.592041015625,700.886474609375)"/>
<path d="M0 0 C0.66 0.33 1.32 0.66 2 1 C2 21.79 2 42.58 2 64 C1.67 64 1.34 64 1 64 C0.67 43.87 0.34 23.74 0 3 C-4.455 5.97 -4.455 5.97 -9 9 C-9.66 9 -10.32 9 -11 9 C-11 8.34 -11 7.68 -11 7 C-8.6640625 5.23828125 -8.6640625 5.23828125 -5.625 3.3125 C-4.62726562 2.66925781 -3.62953125 2.02601563 -2.6015625 1.36328125 C-1.74304688 0.91339844 -0.88453125 0.46351563 0 0 Z " fill="#3C572C" transform="translate(656,291)"/>
<path d="M0 0 C0.33 0 0.66 0 1 0 C1 1.65 1 3.3 1 5 C3.31 5.66 5.62 6.32 8 7 C8 7.66 8 8.32 8 9 C8.67804688 9.24621094 9.35609375 9.49242187 10.0546875 9.74609375 C13.57979955 11.24683774 16.82968421 13.12346681 20.125 15.0625 C24.89033897 17.88515439 24.89033897 17.88515439 30 20 C30 20.66 30 21.32 30 22 C25.90378079 20.74002942 22.31607495 19.21969153 18.59375 17.1015625 C17.60246094 16.53953125 16.61117188 15.9775 15.58984375 15.3984375 C14.57019531 14.81320312 13.55054688 14.22796875 12.5 13.625 C11.48035156 13.0475 10.46070313 12.47 9.41015625 11.875 C4.48834287 9.07167847 -0.34839506 6.23382124 -5 3 C-4.360625 2.690625 -3.72125 2.38125 -3.0625 2.0625 C-1.06389179 1.1654837 -1.06389179 1.1654837 0 0 Z " fill="#83A035" transform="translate(481,350)"/>
<path d="M0 0 C0.66 0.33 1.32 0.66 2 1 C-2.46410676 4.69883132 -6.99235564 7.51913308 -12.16796875 10.09375 C-12.88621826 10.45146484 -13.60446777 10.80917969 -14.34448242 11.17773438 C-14.89080322 11.44908203 -15.43712402 11.72042969 -16 12 C-15.99476318 12.64026123 -15.98952637 13.28052246 -15.98413086 13.94018555 C-15.96327571 16.85594695 -15.95031271 19.77169262 -15.9375 22.6875 C-15.92912109 23.69490234 -15.92074219 24.70230469 -15.91210938 25.74023438 C-15.90888672 26.71669922 -15.90566406 27.69316406 -15.90234375 28.69921875 C-15.89710693 29.59471436 -15.89187012 30.49020996 -15.88647461 31.4128418 C-16.00159802 34.03641759 -16.41765715 36.44293053 -17 39 C-17.33 39 -17.66 39 -18 39 C-18 29.43 -18 19.86 -18 10 C-15.07125 8.329375 -12.1425 6.65875 -9.125 4.9375 C-8.20348145 4.40632568 -7.28196289 3.87515137 -6.33251953 3.32788086 C-5.24366455 2.71505249 -5.24366455 2.71505249 -4.1328125 2.08984375 C-3.38918457 1.66566162 -2.64555664 1.24147949 -1.87939453 0.80444336 C-1.25919434 0.53897705 -0.63899414 0.27351074 0 0 Z " fill="#632C1A" transform="translate(559,381)"/>
<path d="M0 0 C3.42946293 1.61674681 6.56263052 3.57597677 9.75 5.625 C11.22726562 6.57246094 11.22726562 6.57246094 12.734375 7.5390625 C13.48203125 8.02117187 14.2296875 8.50328125 15 9 C12.18883484 11.27984528 9.3734829 13.473628 6.375 15.5 C3.67287517 17.39324582 1.90814648 19.28842342 0 22 C-0.66 22 -1.32 22 -2 22 C0.4931427 16.39042893 3.6955725 13.01062101 9 10 C9.33 9.34 9.66 8.68 10 8 C9.0925 7.79375 8.185 7.5875 7.25 7.375 C3.24267224 5.6795921 2.10515339 3.72450216 0 0 Z " fill="#EF963E" transform="translate(546,286)"/>
<path d="M0 0 C0.33 0.66 0.66 1.32 1 2 C11.89 1.505 11.89 1.505 23 1 C22.67 2.32 22.34 3.64 22 5 C15.07 5 8.14 5 1 5 C0.67 3.35 0.34 1.7 0 0 Z " fill="#312F2B" transform="translate(262,736)"/>
<path d="M0 0 C5.96652354 1.57013777 10.82909025 4.75029782 16 8 C11.55873655 13.20699853 6.04125446 15.92118205 0 19 C-0.66 18.34 -1.32 17.68 -2 17 C-1.071875 16.566875 -0.14375 16.13375 0.8125 15.6875 C3.47184073 14.27961373 5.08105905 13.23876444 7 11 C7.99 11.33 8.98 11.66 10 12 C10 11.34 10 10.68 10 10 C10.66 9.34 11.32 8.68 12 8 C11.13375 7.50628906 10.2675 7.01257813 9.375 6.50390625 C8.26125 5.86324219 7.1475 5.22257812 6 4.5625 C4.88625 3.92441406 3.7725 3.28632813 2.625 2.62890625 C1.75875 2.09136719 0.8925 1.55382812 0 1 C0 0.67 0 0.34 0 0 Z " fill="#7C9D32" transform="translate(641,282)"/>
<path d="M0 0 C7.92 0 15.84 0 24 0 C19.4484219 3.41368357 18.06965826 3.38345447 12.5625 3.3125 C10.61537109 3.30669922 10.61537109 3.30669922 8.62890625 3.30078125 C5.28357803 3.02350431 2.99597613 2.44892102 0 1 C0 0.67 0 0.34 0 0 Z " fill="#1C1A17" transform="translate(121,740)"/>
<path d="M0 0 C4.49029126 -0.36407767 4.49029126 -0.36407767 6.75 1.25 C9.27981647 4.79174306 9.11291847 8.51484887 9.0625 12.75 C9.05347656 13.73484375 9.04445313 14.7196875 9.03515625 15.734375 C9.02355469 16.48203125 9.01195312 17.2296875 9 18 C8.01 18.33 7.02 18.66 6 19 C6.01160156 18.18015625 6.02320313 17.3603125 6.03515625 16.515625 C6.04417969 15.43796875 6.05320312 14.3603125 6.0625 13.25 C6.07410156 12.18265625 6.08570313 11.1153125 6.09765625 10.015625 C6.01424701 7.43994768 5.93084749 5.39360783 5 3 C2.50965614 1.70339566 2.50965614 1.70339566 0 1 C0 0.67 0 0.34 0 0 Z " fill="#141311" transform="translate(615,653)"/>
<path d="M0 0 C3.78995975 0.59654026 6.70356326 1.70067487 10.08203125 3.50390625 C11.01337891 3.99697266 11.94472656 4.49003906 12.90429688 4.99804688 C13.86400391 5.51431641 14.82371094 6.03058594 15.8125 6.5625 C16.79154297 7.08263672 17.77058594 7.60277344 18.77929688 8.13867188 C21.1893066 9.42009168 23.59600219 10.70734711 26 12 C25.67 12.66 25.34 13.32 25 14 C24.50072998 13.75765625 24.00145996 13.5153125 23.48706055 13.265625 C21.22340916 12.17103128 18.95555436 11.08543911 16.6875 10 C15.90181641 9.6184375 15.11613281 9.236875 14.30664062 8.84375 C13.1706543 8.30234375 13.1706543 8.30234375 12.01171875 7.75 C11.31522217 7.41484375 10.61872559 7.0796875 9.90112305 6.734375 C7.87326062 5.81983234 7.87326062 5.81983234 5 6 C5 5.34 5 4.68 5 4 C4.34 3.67 3.68 3.34 3 3 C1.9805881 2.01979625 0.97753644 1.02196992 0 0 Z " fill="#78A338" transform="translate(590,255)"/>
<path d="M0 0 C6.27 0 12.54 0 19 0 C19 1.98 19 3.96 19 6 C18.34 5.01 17.68 4.02 17 3 C14.22737745 2.61605333 11.65676472 2.39657752 8.875 2.3125 C8.12089844 2.27833984 7.36679688 2.24417969 6.58984375 2.20898438 C4.72708799 2.12645722 2.86356674 2.06155289 1 2 C0.67 3.32 0.34 4.64 0 6 C0 4.02 0 2.04 0 0 Z " fill="#DCD9D3" transform="translate(92,706)"/>
<path d="M0 0 C0.763125 0.226875 1.52625 0.45375 2.3125 0.6875 C0.2211545 2.95996338 -1.71008757 4.37852273 -4.48046875 5.73046875 C-5.19267578 6.08173828 -5.90488281 6.43300781 -6.63867188 6.79492188 C-7.37666016 7.15134766 -8.11464844 7.50777344 -8.875 7.875 C-9.62458984 8.24302734 -10.37417969 8.61105469 -11.14648438 8.99023438 C-12.99082212 9.89478218 -14.83881245 10.79187576 -16.6875 11.6875 C-16.6875 10.6975 -16.6875 9.7075 -16.6875 8.6875 C-13.18158652 6.00650734 -10.02909496 5.19233662 -5.6875 4.6875 C-5.6875 4.0275 -5.6875 3.3675 -5.6875 2.6875 C-3.83710722 0.05799447 -3.27282212 -0.38056071 0 0 Z " fill="#95AC31" transform="translate(613.6875,313.3125)"/>
<path d="M0 0 C0.33 0.66 0.66 1.32 1 2 C0.34 2 -0.32 2 -1 2 C-1 2.66 -1 3.32 -1 4 C-4.6991783 6.54274968 -8.73531492 8.33423405 -12.8125 10.1875 C-13.97394531 10.71730469 -15.13539063 11.24710937 -16.33203125 11.79296875 C-17.21246094 12.19128906 -18.09289062 12.58960938 -19 13 C-17.86209561 9.58628683 -17.47297146 9.40606549 -14.47265625 7.7734375 C-13.76302734 7.3815625 -13.05339844 6.9896875 -12.32226562 6.5859375 C-11.57654297 6.18632812 -10.83082031 5.78671875 -10.0625 5.375 C-9.32064453 4.96765625 -8.57878906 4.5603125 -7.81445312 4.140625 C-5.22680305 2.72363439 -2.63885733 1.31942866 0 0 Z " fill="#6D351D" transform="translate(655,356)"/>
<path d="M0 0 C1.85446293 3.70892586 3.04953435 6.97879917 4 11 C3.67 11.99 3.34 12.98 3 14 C-3.27 14 -9.54 14 -16 14 C-16 13.67 -16 13.34 -16 13 C-7.585 12.505 -7.585 12.505 1 12 C0.67 8.04 0.34 4.08 0 0 Z " fill="#E2DDD0" transform="translate(355,723)"/>
<path d="M0 0 C2.9156164 3.54039134 5.50127818 7.1626772 8 11 C7.0925 10.690625 6.185 10.38125 5.25 10.0625 C2.83436662 9.2727737 0.47219715 8.57050703 -2 8 C-1.125 2.25 -1.125 2.25 0 0 Z " fill="#E58D42" transform="translate(382,222)"/>
<path d="M0 0 C2.25 0.0625 2.25 0.0625 5 1 C6.67849824 3.2308475 7.75999263 5.47405906 9 8 C10.32 7.67 11.64 7.34 13 7 C12.34 8.65 11.68 10.3 11 12 C10.01 12 9.02 12 8 12 C5 6 5 6 4 3.6875 C3.04145794 1.64996902 3.04145794 1.64996902 0 1 C0 0.67 0 0.34 0 0 Z " fill="#DF9237" transform="translate(533,301)"/>
<path d="M0 0 C0 0.66 0 1.32 0 2 C-2.95105384 3.7004792 -5.91190122 5.38311093 -8.875 7.0625 C-9.71675781 7.54783203 -10.55851563 8.03316406 -11.42578125 8.53320312 C-12.23144531 8.98759766 -13.03710938 9.44199219 -13.8671875 9.91015625 C-14.61081543 10.33433838 -15.35444336 10.75852051 -16.12060547 11.19555664 C-17.05090576 11.5937561 -17.05090576 11.5937561 -18 12 C-18.66 11.67 -19.32 11.34 -20 11 C-18.21190303 9.82786955 -16.41940875 8.66244474 -14.625 7.5 C-13.62726562 6.8503125 -12.62953125 6.200625 -11.6015625 5.53125 C-9 4 -9 4 -7 4 C-7 3.34 -7 2.68 -7 2 C-2.25 0 -2.25 0 0 0 Z " fill="#9B532B" transform="translate(650,495)"/>
<path d="M0 0 C2.97 0.495 2.97 0.495 6 1 C5.2884375 1.5878125 5.2884375 1.5878125 4.5625 2.1875 C2.64820367 4.40808374 2.38733012 6.13375709 2 9 C1.34 8.01 0.68 7.02 0 6 C-1.98 6.33 -3.96 6.66 -6 7 C-5.67 6.01 -5.34 5.02 -5 4 C-3.35 3.67 -1.7 3.34 0 3 C0 2.01 0 1.02 0 0 Z " fill="#8E4E28" transform="translate(611,433)"/>
<path d="M0 0 C2.5 2.3125 2.5 2.3125 5 5 C5 5.99 5 6.98 5 8 C5.99 8 6.98 8 8 8 C8.33 7.34 8.66 6.68 9 6 C9 7.32 9 8.64 9 10 C7.35 10.33 5.7 10.66 4 11 C4 10.01 4 9.02 4 8 C3.34 8 2.68 8 2 8 C2 7.01 2 6.02 2 5 C1.34 4.67 0.68 4.34 0 4 C0 2.68 0 1.36 0 0 Z " fill="#729931" transform="translate(536,305)"/>
<path d="M0 0 C-2.99678034 2.55281289 -5.146242 3.37264405 -9 4 C-11.33762223 4.65146849 -13.67190457 5.31526605 -16 6 C-11.62778157 0.85621361 -6.67289272 -1.95304177 0 0 Z " fill="#599638" transform="translate(515,213)"/>
<path d="M0 0 C0 0.66 0 1.32 0 2 C-2.0978523 3.20005531 -4.2020249 4.38502983 -6.3125 5.5625 C-6.90740234 5.90474609 -7.50230469 6.24699219 -8.11523438 6.59960938 C-9.70282559 7.47766262 -11.34993931 8.24586268 -13 9 C-13.99 8.67 -14.98 8.34 -16 8 C-13.71125827 6.66141476 -11.41930344 5.32898986 -9.125 4 C-8.47402344 3.6184375 -7.82304688 3.236875 -7.15234375 2.84375 C-2.2265625 0 -2.2265625 0 0 0 Z " fill="#89A434" transform="translate(527,364)"/>
<path d="M0 0 C3.33333333 1.66666667 6.66666667 3.33333333 10 5 C7.33440687 6.77706209 4.9719385 7.87548273 2 9 C1.855625 7.88625 1.71125 6.7725 1.5625 5.625 C1.21627965 2.17857953 1.21627965 2.17857953 0 0 Z " fill="#F5B25F" transform="translate(675,250)"/>
<path d="M0 0 C0.66 0.33 1.32 0.66 2 1 C0.02 3.31 -1.96 5.62 -4 8 C-6.475 7.01 -6.475 7.01 -9 6 C-6.45368965 3.02930459 -3.57769851 1.5224249 0 0 Z " fill="#4B8C37" transform="translate(419,261)"/>
<path d="M0 0 C1.1875 1.625 1.1875 1.625 2 4 C0.625 7.25 0.625 7.25 -1 10 C-1.99 9.67 -2.98 9.34 -4 9 C-3.46930939 5.17902761 -2.50298434 2.93828597 0 0 Z " fill="#749932" transform="translate(550,302)"/>
<path d="M0 0 C1.49080078 0.29197266 1.49080078 0.29197266 3.01171875 0.58984375 C4.15060547 0.82380859 4.15060547 0.82380859 5.3125 1.0625 C5.3125 1.3925 5.3125 1.7225 5.3125 2.0625 C-0.2975 2.0625 -5.9075 2.0625 -11.6875 2.0625 C-7.24925936 -0.89632709 -5.09735584 -1.01947117 0 0 Z " fill="#151412" transform="translate(136.6875,719.9375)"/>
<path d="M0 0 C0 0.99 0 1.98 0 3 C-0.66 3.66 -1.32 4.32 -2 5 C-2.66 5 -3.32 5 -4 5 C-4.33 5.66 -4.66 6.32 -5 7 C-7.32156597 7.40729228 -9.6568787 7.74438677 -12 8 C-8.59287819 4.02502456 -4.67239145 2.13206212 0 0 Z " fill="#468937" transform="translate(461,238)"/>
<path d="M0 0 C0.66 0.33 1.32 0.66 2 1 C2.73075648 3.3140622 3.40138258 5.64828869 4 8 C1.525 7.01 1.525 7.01 -1 6 C-1.33 6.66 -1.66 7.32 -2 8 C-1.125 1.125 -1.125 1.125 0 0 Z " fill="#1C1C18" transform="translate(310,661)"/>
<path d="M0 0 C5.96652354 1.57013777 10.82909025 4.75029782 16 8 C15.67 8.66 15.34 9.32 15 10 C14.34 10 13.68 10 13 10 C12.57074219 9.56945312 12.14148438 9.13890625 11.69921875 8.6953125 C9.61068778 6.61158275 7.36770743 5.34249287 4.8125 3.875 C3.19265369 2.94341457 1.58342011 1.99223699 0 1 C0 0.67 0 0.34 0 0 Z " fill="#83AD39" transform="translate(641,282)"/>
<path d="M0 0 C0.66 0.33 1.32 0.66 2 1 C0.42210402 2.15330947 -1.1625482 3.29737927 -2.75 4.4375 C-3.63171875 5.07558594 -4.5134375 5.71367187 -5.421875 6.37109375 C-7.72699125 7.8275081 -9.34349572 8.55931821 -12 9 C-12 8.34 -12 7.68 -12 7 C-9.4453125 5.23828125 -9.4453125 5.23828125 -6.125 3.3125 C-5.03445313 2.66925781 -3.94390625 2.02601563 -2.8203125 1.36328125 C-1.88960937 0.91339844 -0.95890625 0.46351563 0 0 Z " fill="#69311C" transform="translate(578,399)"/>
<path d="M0 0 C0 3.77910478 -0.99703962 4.46106101 -3.5 7.1875 C-4.47453125 8.26064453 -4.47453125 8.26064453 -5.46875 9.35546875 C-5.9740625 9.89816406 -6.479375 10.44085938 -7 11 C-7.33 10.34 -7.66 9.68 -8 9 C-6.85459775 7.68712379 -5.70866567 6.37470979 -4.5625 5.0625 C-3.92441406 4.33160156 -3.28632813 3.60070312 -2.62890625 2.84765625 C-1.77458541 1.87860647 -0.91348825 0.91348825 0 0 Z " fill="#3A4B53" transform="translate(299,296)"/>
<path d="M0 0 C0 0.99 0 1.98 0 3 C-1.8984375 4.60546875 -1.8984375 4.60546875 -4.375 6.1875 C-5.18710937 6.71730469 -5.99921875 7.24710937 -6.8359375 7.79296875 C-9 9 -9 9 -11 9 C-11 8.34 -11 7.68 -11 7 C-9.21601386 5.71993203 -7.37146094 4.52339649 -5.5 3.375 C-3.96859375 2.42753906 -3.96859375 2.42753906 -2.40625 1.4609375 C-1.6121875 0.97882813 -0.818125 0.49671875 0 0 Z " fill="#3C6232" transform="translate(656,291)"/>
<path d="M0 0 C4.23429756 1.31061591 8.07407404 2.94356259 12 5 C12 5.66 12 6.32 12 7 C10.88625 6.505 10.88625 6.505 9.75 6 C6.86116688 4.77217129 6.86116688 4.77217129 3 5 C0 1.67857143 0 1.67857143 0 0 Z " fill="#7AA537" transform="translate(628,275)"/>
<path d="M0 0 C0.66 0.33 1.32 0.66 2 1 C1.67 1.66 1.34 2.32 1 3 C2.65 2.34 4.3 1.68 6 1 C6 2.65 6 4.3 6 6 C3.03 5.01 0.06 4.02 -3 3 C-3 2.34 -3 1.68 -3 1 C-2.01 0.67 -1.02 0.34 0 0 Z " fill="#D17F3A" transform="translate(370,235)"/>
<path d="M0 0 C3.53586014 3.17320782 5.58578031 5.16743695 6 10 C3 9 3 9 1.83203125 7.15234375 C1.49558594 6.42144531 1.15914062 5.69054687 0.8125 4.9375 C0.46832031 4.20402344 0.12414062 3.47054687 -0.23046875 2.71484375 C-0.48441406 2.14894531 -0.73835937 1.58304688 -1 1 C-0.67 0.67 -0.34 0.34 0 0 Z " fill="#1A1916" transform="translate(167,641)"/>
<path d="M0 0 C0.66 0.33 1.32 0.66 2 1 C-0.57784846 3.64752004 -2.91648098 5.94432065 -6 8 C-6.66 7.34 -7.32 6.68 -8 6 C-5.36 4.02 -2.72 2.04 0 0 Z " fill="#F6F2E9" transform="translate(109,634)"/>
<path d="M0 0 C-1.98 0.66 -3.96 1.32 -6 2 C-6 3.32 -6 4.64 -6 6 C-7.32 6 -8.64 6 -10 6 C-10 5.01 -10 4.02 -10 3 C-3.375 -1.125 -3.375 -1.125 0 0 Z " fill="#61982D" transform="translate(561,298)"/>
<path d="M0 0 C0.89449547 2.68348641 1.45964448 5.23067798 2 8 C2.32483418 9.33542939 2.6550855 10.66961551 3 12 C1.68 11.34 0.36 10.68 -1 10 C-1.125 2.25 -1.125 2.25 0 0 Z " fill="#F1EEE6" transform="translate(751,677)"/>
<path d="M0 0 C0.99 0 1.98 0 3 0 C2.67 4.95 2.34 9.9 2 15 C1.67 15 1.34 15 1 15 C0.67 10.05 0.34 5.1 0 0 Z " fill="#161412" transform="translate(242,657)"/>
<path d="M0 0 C3 1 3 1 4.1875 3.0625 C4.455625 3.701875 4.72375 4.34125 5 5 C4.01 5.33 3.02 5.66 2 6 C2 5.34 2 4.68 2 4 C1.01 4.33 0.02 4.66 -1 5 C-0.67 3.35 -0.34 1.7 0 0 Z M0 6 C2 7 2 7 2 7 Z " fill="#703D23" transform="translate(514,486)"/>
<path d="M0 0 C0.66 0.66 1.32 1.32 2 2 C-3.17578125 5.22265625 -3.17578125 5.22265625 -5 6 C-5.99 5.67 -6.98 5.34 -8 5 C-5 3 -5 3 -3 3 C-3 2.34 -3 1.68 -3 1 C-2.01 0.67 -1.02 0.34 0 0 Z " fill="#93AA33" transform="translate(583,330)"/>
<path d="M0 0 C-2.64 1.65 -5.28 3.3 -8 5 C-8.66 4.34 -9.32 3.68 -10 3 C-3.375 -1.125 -3.375 -1.125 0 0 Z " fill="#406433" transform="translate(591,331)"/>
<path d="M0 0 C5.75 1.875 5.75 1.875 8 3 C8 3.66 8 4.32 8 5 C5.6875 5.3125 5.6875 5.3125 3 5 C1.1875 2.5 1.1875 2.5 0 0 Z " fill="#539838" transform="translate(518,216)"/>
<path d="M0 0 C-1.62366466 3.24732932 -4.75387839 3.70155136 -8 5 C-8.33 4.34 -8.66 3.68 -9 3 C-8.34 3 -7.68 3 -7 3 C-7 2.34 -7 1.68 -7 1 C-4.53721199 -0.231394 -2.7204945 -0.07159196 0 0 Z " fill="#98AC33" transform="translate(596,325)"/>
<path d="M0 0 C0 0.66 0 1.32 0 2 C-2.97 3.32 -5.94 4.64 -9 6 C-9 5.34 -9 4.68 -9 4 C-2.25 0 -2.25 0 0 0 Z " fill="#426634" transform="translate(613,317)"/>
<path d="M0 0 C0.66 0.33 1.32 0.66 2 1 C1.67 2.65 1.34 4.3 1 6 C-1.475 5.01 -1.475 5.01 -4 4 C-4 3.34 -4 2.68 -4 2 C-2.125 0.9375 -2.125 0.9375 0 0 Z " fill="#6B9230" transform="translate(558,288)"/>
<path d="M0 0 C1.98 0.99 1.98 0.99 4 2 C4 2.99 4 3.98 4 5 C4.66 5 5.32 5 6 5 C6 5.66 6 6.32 6 7 C3.00675737 5.9024777 2.15389099 5.32317108 0.75 2.375 C0.5025 1.59125 0.255 0.8075 0 0 Z " fill="#1C0D07" transform="translate(676,247)"/>
<path d="M0 0 C-2.31 1.65 -4.62 3.3 -7 5 C-7 4.34 -7 3.68 -7 3 C-7.66 2.67 -8.32 2.34 -9 2 C-3.375 -1.125 -3.375 -1.125 0 0 Z " fill="#569439" transform="translate(492,224)"/>
<path d="M0 0 C1.98 0 3.96 0 6 0 C6.33 0.99 6.66 1.98 7 3 C6.01 4.485 6.01 4.485 5 6 C5 5.01 5 4.02 5 3 C2.03 2.505 2.03 2.505 -1 2 C-0.67 1.34 -0.34 0.68 0 0 Z " fill="#884B28" transform="translate(606,410)"/>
<path d="M0 0 C4.31392226 0.4793247 6.16569547 1.7457985 9 5 C5.22454612 3.90931332 2.52956528 3.0916909 0 0 Z " fill="#759A33" transform="translate(463,345)"/>
<path d="M0 0 C0.99 0.66 1.98 1.32 3 2 C2.195625 2.12375 1.39125 2.2475 0.5625 2.375 C-0.7059375 2.684375 -0.7059375 2.684375 -2 3 C-2.33 3.66 -2.66 4.32 -3 5 C-3.99 4.34 -4.98 3.68 -6 3 C-4.02 2.01 -2.04 1.02 0 0 Z " fill="#3A7933" transform="translate(448,245)"/>
<path d="M0 0 C0.66 0.33 1.32 0.66 2 1 C1.071875 2.1446875 1.071875 2.1446875 0.125 3.3125 C-2.05597052 5.99625809 -2.05597052 5.99625809 -4 9 C-4.8125 7.3125 -4.8125 7.3125 -5 5 C-2.5625 2.25 -2.5625 2.25 0 0 Z " fill="#C1662B" transform="translate(386,243)"/>
<path d="M0 0 C1.65 0.33 3.3 0.66 5 1 C2.31158141 3.25245881 0.35358125 4.88213958 -3 6 C-2.67 5.01 -2.34 4.02 -2 3 C-1.34 3 -0.68 3 0 3 C0 2.01 0 1.02 0 0 Z " fill="#E6863A" transform="translate(392,235)"/>
<path d="M0 0 C0.66 0.33 1.32 0.66 2 1 C0.02579865 3.52259061 -0.96745642 3.9929808 -4.1875 4.6875 C-5.5796875 4.8421875 -5.5796875 4.8421875 -7 5 C-4.63707344 2.47411298 -3.33537489 1.11179163 0 0 Z " fill="#50943A" transform="translate(480,228)"/>
</svg>
